<?xml version="1.0" encoding="UTF-8"?>
<svg version="1.1" viewBox="0 0 1200 1200" xmlns="http://www.w3.org/2000/svg" xmlns:xlink="http://www.w3.org/1999/xlink">
 <defs>
  <linearGradient id="bl">
   <stop stop-color="#808080" offset="0"/>
   <stop stop-color="#808080" stop-opacity="0" offset="1"/>
  </linearGradient>
  <linearGradient id="bk">
   <stop stop-color="#e6e6e6" offset="0"/>
   <stop stop-color="#f2f2f2" stop-opacity="0" offset="1"/>
  </linearGradient>
  <linearGradient id="bm">
   <stop stop-color="#666" offset="0"/>
   <stop stop-color="#666" stop-opacity="0" offset="1"/>
  </linearGradient>
  <linearGradient id="bp">
   <stop stop-color="#fff" stop-opacity="0" offset="0"/>
   <stop stop-color="#fff" offset="1"/>
  </linearGradient>
  <linearGradient id="bo">
   <stop stop-color="#ececec" offset="0"/>
   <stop stop-color="#ececec" stop-opacity="0" offset="1"/>
  </linearGradient>
  <linearGradient id="bn">
   <stop stop-color="#e6e6e6" offset="0"/>
   <stop stop-color="#e6e6e6" stop-opacity="0" offset="1"/>
  </linearGradient>
  <clipPath id="ck">
   <path d="m294.43 196.2c1.1 1.01 2.85 1.04 3.29 3.04l-0.25 3.04c-0.39 1.66-2.39 2.52-4.05 3.54-9.82-4.69-20.26-7.46-28.86-13.67 0.5-1.27 1.26-3.23 2.4-4.18l2.41-0.63 3.54 0.25 21.52 8.61z" fill="#ccc" fill-rule="evenodd"/>
  </clipPath>
  <linearGradient id="cx" x1="212.58" x2="212.58" y1="56.803" y2="105.23" gradientTransform="matrix(2.5867 0 0 2.5867 27.61 -43.712)" gradientUnits="userSpaceOnUse">
   <stop stop-color="#ccc" offset="0"/>
   <stop stop-color="#ccc" stop-opacity="0" offset="1"/>
  </linearGradient>
  <radialGradient id="ch" cx="212.91" cy="437.47" r="121.27" gradientTransform="matrix(3.1101 1.5028e-7 0 .33226 -62.168 929.45)" gradientUnits="userSpaceOnUse">
   <stop stop-color="#333" offset="0"/>
   <stop stop-color="#333" stop-opacity="0" offset="1"/>
  </radialGradient>
  <linearGradient id="cy" x1="130.8" x2="130.8" y1="286.02" y2="381.42" gradientTransform="matrix(2.5867 0 0 2.5867 32.793 57.169)" gradientUnits="userSpaceOnUse" xlink:href="#bn"/>
  <linearGradient id="cz" x1="263.29" x2="261.52" y1="415.36" y2="398.48" gradientTransform="matrix(2.5867 0 0 2.3313 27.61 51.478)" gradientUnits="userSpaceOnUse" xlink:href="#bo"/>
  <linearGradient id="da" x1="313.96" x2="316.38" y1="256.55" y2="417.07" gradientTransform="matrix(3.3423 0 0 2.7873 -211.83 -96.266)" gradientUnits="userSpaceOnUse">
   <stop stop-color="#808080" offset="0"/>
   <stop stop-color="#666" stop-opacity="0" offset="1"/>
  </linearGradient>
  <linearGradient id="db" x1="267.87" x2="267.45" y1="264.77" y2="333.6" gradientTransform="matrix(2.5867 0 0 2.5867 27.619 -43.713)" gradientUnits="userSpaceOnUse" spreadMethod="reflect">
   <stop stop-color="#e6e6e6" offset="0"/>
   <stop stop-color="#e6e6e6" stop-opacity="0" offset="1"/>
  </linearGradient>
  <linearGradient id="dc" x1="243.46" x2="346.93" y1="199.31" y2="229.74" gradientTransform="matrix(2.5867 0 0 2.5867 27.619 -43.713)" gradientUnits="userSpaceOnUse">
   <stop stop-color="#333" offset="0"/>
   <stop stop-color="#666" stop-opacity="0" offset="1"/>
  </linearGradient>
  <linearGradient id="dd" x1="263.29" x2="263.29" y1="415.36" y2="372.59" gradientTransform="matrix(2.5867 0 0 2.3313 27.61 51.478)" gradientUnits="userSpaceOnUse" xlink:href="#bo"/>
  <linearGradient id="de" x1="130.8" x2="130.8" y1="270.02" y2="353.42" gradientTransform="matrix(2.5867 0 0 2.5867 27.619 -43.713)" gradientUnits="userSpaceOnUse" xlink:href="#bn"/>
  <linearGradient id="df" x1="139.99" x2="131.4" y1="248" y2="319.25" gradientTransform="matrix(2.5867 0 0 2.5867 27.619 -43.713)" gradientUnits="userSpaceOnUse">
   <stop stop-color="#4d4d4d" offset="0"/>
   <stop stop-color="#916f6f" stop-opacity="0" offset="1"/>
  </linearGradient>
  <linearGradient id="dg" x1="280.87" x2="280.87" y1="135.93" y2="203.79" gradientTransform="matrix(2.5867 0 0 2.5867 27.619 -43.713)" gradientUnits="userSpaceOnUse">
   <stop stop-color="#e6e6e6" offset="0"/>
   <stop stop-color="#e6e6e6" stop-opacity="0" offset="1"/>
  </linearGradient>
  <linearGradient id="dh" x1="141.06" x2="141.42" y1="353.97" y2="380.72" gradientTransform="matrix(2.5867 0 0 2.5867 27.619 -43.713)" gradientUnits="userSpaceOnUse">
   <stop stop-color="#fff" offset="0"/>
   <stop stop-color="#fff" stop-opacity="0" offset="1"/>
  </linearGradient>
  <linearGradient id="di" x1="188.5" x2="188.5" y1="108.25" y2="224.96" gradientTransform="matrix(2.5867 0 0 2.5867 27.619 -43.713)" gradientUnits="userSpaceOnUse">
   <stop stop-color="#f2f2f2" offset="0"/>
   <stop stop-color="#f2f2f2" stop-opacity="0" offset="1"/>
  </linearGradient>
  <radialGradient id="ci" cx="243.77" cy="353.86" r="2.8345" gradientTransform="matrix(2.5867 0 0 3.4489 27.61 -348.82)" gradientUnits="userSpaceOnUse">
   <stop stop-color="#e6e6e6" offset="0"/>
   <stop stop-color="#e6e6e6" stop-opacity="0" offset="1"/>
  </radialGradient>
  <radialGradient id="cj" cx="192.1" cy="323.52" r="43.291" gradientTransform="matrix(4.1903 -4.6429e-8 3.0855e-7 11.269 -280.28 -2749.8)" gradientUnits="userSpaceOnUse">
   <stop stop-color="#fff" offset="0"/>
   <stop stop-color="#fff" stop-opacity="0" offset="1"/>
  </radialGradient>
  <linearGradient id="dj" x1="166.7" x2="166.7" y1="263.98" y2="271.22" gradientTransform="matrix(2.5867 0 0 2.5867 162.96 114.51)" gradientUnits="userSpaceOnUse" xlink:href="#bk"/>
  <linearGradient id="dk" x1="169.35" x2="166.7" y1="272.82" y2="266.78" gradientTransform="matrix(2.5867 0 0 2.5867 162.96 114.51)" gradientUnits="userSpaceOnUse" xlink:href="#bl"/>
  <radialGradient id="cd" cx="192.88" cy="186.88" r="30.126" gradientTransform="matrix(2.5867 0 0 1.3631 27.61 184.96)" gradientUnits="userSpaceOnUse">
   <stop stop-color="#aad400" offset="0"/>
   <stop stop-color="#aad400" stop-opacity="0" offset="1"/>
  </radialGradient>
  <linearGradient id="cl" x1="192.53" x2="192.53" y1="230" y2="160.27" gradientTransform="matrix(2.5867 0 0 2.5867 27.61 -43.712)" gradientUnits="userSpaceOnUse">
   <stop stop-color="#ccc" offset="0"/>
   <stop stop-color="#b8b8b8" offset=".4"/>
   <stop stop-color="#ccc" offset="1"/>
  </linearGradient>
  <radialGradient id="ce" cx="194.13" cy="134.73" r="31.507" fx="178.73" fy="127.34" gradientTransform="matrix(3.5692 -.032201 .028554 3.4664 -165.04 -158.31)" gradientUnits="userSpaceOnUse">
   <stop offset="0"/>
   <stop stop-opacity="0" offset="1"/>
  </radialGradient>
  <linearGradient id="cm" x1="204.52" x2="192.62" y1="140.66" y2="122.77" gradientTransform="matrix(2.6455 0 0 4.2449 14.434 -262.31)" gradientUnits="userSpaceOnUse">
   <stop stop-color="#999" offset="0"/>
   <stop stop-color="#ccc" stop-opacity="0" offset="1"/>
  </linearGradient>
  <linearGradient id="cn" x1="199.88" x2="186.61" y1="247.9" y2="238.85" gradientTransform="matrix(2.5118 0 0 2.4555 46.973 -10.004)" gradientUnits="userSpaceOnUse">
   <stop stop-color="#f9f9f9" offset="0"/>
   <stop stop-color="#f9f9f9" stop-opacity="0" offset="1"/>
  </linearGradient>
  <linearGradient id="co" x1="190.5" x2="190.5" y1="104.27" y2="217.8" gradientTransform="matrix(2.5867 0 0 2.5867 27.61 -43.712)" gradientUnits="userSpaceOnUse">
   <stop stop-color="#f9f9f9" offset="0"/>
   <stop stop-color="#f9f9f9" stop-opacity="0" offset="1"/>
  </linearGradient>
  <radialGradient id="cf" cx="282.84" cy="338.22" r="6.0865" gradientTransform="matrix(1.2173 9.645e-7 -9.645e-7 1.2173 414.95 419.47)" gradientUnits="userSpaceOnUse">
   <stop stop-color="#faa" offset="0"/>
   <stop stop-color="#faa" stop-opacity="0" offset="1"/>
  </radialGradient>
  <radialGradient id="cg" cx="282.84" cy="338.22" r="6.0865" gradientTransform="matrix(1.9781 0 0 1.9781 199.76 162.15)" gradientUnits="userSpaceOnUse">
   <stop stop-color="#a00" stop-opacity="0" offset="0"/>
   <stop stop-color="#a00" offset="1"/>
  </radialGradient>
  <linearGradient id="cp" x1="278.55" x2="288.93" y1="338.22" y2="338.22" gradientTransform="matrix(2.5867 0 0 2.5867 27.61 -43.712)" gradientUnits="userSpaceOnUse" xlink:href="#bp"/>
  <linearGradient id="cq" x1="278.55" x2="288.93" y1="338.22" y2="338.22" gradientTransform="matrix(2.5867 0 0 2.5867 27.61 -43.712)" gradientUnits="userSpaceOnUse">
   <stop stop-color="#666" offset="0"/>
   <stop stop-color="#666" stop-opacity="0" offset="1"/>
  </linearGradient>
  <linearGradient id="cr" x1="268.57" x2="286.12" y1="367.22" y2="367.22" gradientTransform="matrix(3.5351 0 0 3.5351 -216.12 -370.71)" gradientUnits="userSpaceOnUse" xlink:href="#bp"/>
  <linearGradient id="cs" x1="268.57" x2="286.12" y1="367.22" y2="367.22" gradientTransform="matrix(3.5351 0 0 3.5351 -216.12 -370.71)" gradientUnits="userSpaceOnUse">
   <stop stop-color="#808080" offset="0"/>
   <stop stop-color="#808080" stop-opacity="0" offset="1"/>
  </linearGradient>
  <linearGradient id="ct" x1="216.25" x2="216.25" y1="431.32" y2="410.52" gradientTransform="matrix(2.5867 0 0 2.5867 27.61 -43.712)" gradientUnits="userSpaceOnUse" xlink:href="#bm"/>
  <linearGradient id="cu" x1="106.19" x2="135.33" y1="416.99" y2="404.08" gradientTransform="matrix(2.5867 0 0 2.5867 27.61 -43.712)" gradientUnits="userSpaceOnUse" xlink:href="#bm"/>
  <linearGradient id="cv" x1="331.04" x2="310.05" y1="410.55" y2="396.2" gradientTransform="matrix(2.5867 0 0 2.5867 27.61 -43.712)" gradientUnits="userSpaceOnUse" xlink:href="#bm"/>
  <linearGradient id="cw" x1="222.78" x2="222.78" y1="195.44" y2="430.94" gradientTransform="matrix(2.5867 0 0 2.5867 27.61 -43.712)" gradientUnits="userSpaceOnUse">
   <stop stop-color="#d4d4d4" offset="0"/>
   <stop stop-color="#9c9c9c" offset=".6"/>
   <stop stop-color="#d7d7d7" offset="1"/>
  </linearGradient>
  <linearGradient id="dl" x1="166.7" x2="166.7" y1="263.98" y2="271.22" gradientTransform="matrix(2.5867 0 0 2.5867 27.61 -41.126)" gradientUnits="userSpaceOnUse" xlink:href="#bk"/>
  <linearGradient id="dm" x1="169.35" x2="166.7" y1="272.82" y2="266.78" gradientTransform="matrix(2.5867 0 0 2.5867 27.61 -41.126)" gradientUnits="userSpaceOnUse" xlink:href="#bl"/>
  <linearGradient id="dn" x1="166.7" x2="166.7" y1="263.98" y2="271.22" gradientTransform="matrix(2.5867 0 0 2.5867 93.457 -41.126)" gradientUnits="userSpaceOnUse" xlink:href="#bk"/>
  <linearGradient id="do" x1="169.35" x2="166.7" y1="272.82" y2="266.78" gradientTransform="matrix(2.5867 0 0 2.5867 93.457 -41.126)" gradientUnits="userSpaceOnUse" xlink:href="#bl"/>
  <linearGradient id="dp" x1="166.7" x2="166.7" y1="263.98" y2="271.22" gradientTransform="matrix(2.5867 0 0 2.5867 162.96 -41.126)" gradientUnits="userSpaceOnUse" xlink:href="#bk"/>
  <linearGradient id="dq" x1="169.35" x2="166.7" y1="272.82" y2="266.78" gradientTransform="matrix(2.5867 0 0 2.5867 162.96 -41.126)" gradientUnits="userSpaceOnUse" xlink:href="#bl"/>
  <linearGradient id="dr" x1="166.7" x2="166.7" y1="263.98" y2="271.22" gradientTransform="matrix(2.5867 0 0 2.5867 27.61 10.246)" gradientUnits="userSpaceOnUse" xlink:href="#bk"/>
  <linearGradient id="ds" x1="169.35" x2="166.7" y1="272.82" y2="266.78" gradientTransform="matrix(2.5867 0 0 2.5867 27.61 10.246)" gradientUnits="userSpaceOnUse" xlink:href="#bl"/>
  <linearGradient id="dt" x1="166.7" x2="166.7" y1="263.98" y2="271.22" gradientTransform="matrix(2.5867 0 0 2.5867 93.457 10.246)" gradientUnits="userSpaceOnUse" xlink:href="#bk"/>
  <linearGradient id="bq" x1="169.35" x2="166.7" y1="272.82" y2="266.78" gradientTransform="matrix(2.5867 0 0 2.5867 93.457 10.246)" gradientUnits="userSpaceOnUse" xlink:href="#bl"/>
  <linearGradient id="br" x1="166.7" x2="166.7" y1="263.98" y2="271.22" gradientTransform="matrix(2.5867 0 0 2.5867 162.96 10.246)" gradientUnits="userSpaceOnUse" xlink:href="#bk"/>
  <linearGradient id="bs" x1="169.35" x2="166.7" y1="272.82" y2="266.78" gradientTransform="matrix(2.5867 0 0 2.5867 162.96 10.246)" gradientUnits="userSpaceOnUse" xlink:href="#bl"/>
  <linearGradient id="bt" x1="166.7" x2="166.7" y1="263.98" y2="271.22" gradientTransform="matrix(2.5867 0 0 2.5867 27.61 64.205)" gradientUnits="userSpaceOnUse" xlink:href="#bk"/>
  <linearGradient id="bu" x1="169.35" x2="166.7" y1="272.82" y2="266.78" gradientTransform="matrix(2.5867 0 0 2.5867 27.61 64.205)" gradientUnits="userSpaceOnUse" xlink:href="#bl"/>
  <linearGradient id="bv" x1="166.7" x2="166.7" y1="263.98" y2="271.22" gradientTransform="matrix(2.5867 0 0 2.5867 93.457 64.205)" gradientUnits="userSpaceOnUse" xlink:href="#bk"/>
  <linearGradient id="bw" x1="169.35" x2="166.7" y1="272.82" y2="266.78" gradientTransform="matrix(2.5867 0 0 2.5867 93.457 64.205)" gradientUnits="userSpaceOnUse" xlink:href="#bl"/>
  <linearGradient id="bx" x1="166.7" x2="166.7" y1="263.98" y2="271.22" gradientTransform="matrix(2.5867 0 0 2.5867 162.96 64.205)" gradientUnits="userSpaceOnUse" xlink:href="#bk"/>
  <linearGradient id="by" x1="169.35" x2="166.7" y1="272.82" y2="266.78" gradientTransform="matrix(2.5867 0 0 2.5867 162.96 64.205)" gradientUnits="userSpaceOnUse" xlink:href="#bl"/>
  <linearGradient id="bz" x1="166.7" x2="166.7" y1="263.98" y2="271.22" gradientTransform="matrix(2.5867 0 0 2.5867 27.61 114.51)" gradientUnits="userSpaceOnUse" xlink:href="#bk"/>
  <linearGradient id="ca" x1="169.35" x2="166.7" y1="272.82" y2="266.78" gradientTransform="matrix(2.5867 0 0 2.5867 27.61 114.51)" gradientUnits="userSpaceOnUse" xlink:href="#bl"/>
  <linearGradient id="cb" x1="166.7" x2="166.7" y1="263.98" y2="271.22" gradientTransform="matrix(2.5867 0 0 2.5867 93.457 114.51)" gradientUnits="userSpaceOnUse" xlink:href="#bk"/>
  <linearGradient id="cc" x1="169.35" x2="166.7" y1="272.82" y2="266.78" gradientTransform="matrix(2.5867 0 0 2.5867 93.457 114.51)" gradientUnits="userSpaceOnUse" xlink:href="#bl"/>
 </defs>
 <path d="m1.9196e-14 6.3949e-14h1200v1200h-1200z" color="#000000" color-rendering="auto" fill="#fff" image-rendering="auto" shape-rendering="auto" solid-color="#000000" style="isolation:auto;mix-blend-mode:normal;paint-order:markers stroke fill"/>
 <path d="m563.53 86.745c12.442-3.5076 21.884-1.089 32.024 0 11.382 41.111 24.445 180.42 0 176.51h-32.024c-31.817-8.1999-14.382-136.99 0-176.51z"/>
 <path d="m565.65 89.505c-6.8548 19.799-14.615 60.439-16.736 97.406-1.0864 18.943-0.67255 36.897 1.8624 50.348 1.2675 6.7514 3.1041 12.287 5.4063 16.271 2.2763 3.8801 4.8113 6.1047 7.8637 6.9324h31.92c0.90536 0.1552 1.5262 0.077602 2.2505-0.38801 0.75015-0.49148 1.6038-1.5003 2.4315-3.0006 1.6814-3.0006 3.1299-7.993 4.1129-14.382 1.9918-12.804 2.2763-31.054 1.4744-50.687-1.5779-38.242-7.5015-81.715-12.934-102.5-7.9154-1.3037-15.055-3.3705-27.652-1.6e-13z" fill="url(#cx)" opacity=".5"/>
 <path d="m935.12 1074.8c0 22.281-150.06 40.242-335.14 40.242s-335.11-17.961-335.11-40.242c-0.011054-22.281 150.03-40.355 335.11-40.355s335.14 18.075 335.14 40.355z" fill="url(#ch)" opacity=".7217"/>
 <path d="m767.42 1032.1c-6.0726 0-10.92 4.5278-10.92 10.094v18.75c0 5.5932 4.8474 10.041 10.92 10.041h13.344c6.0459 0 10.893-4.4479 10.893-10.041v-18.75c0-5.5665-4.8474-10.094-10.893-10.094zm-349.07 1.8644c-5.5852 0-10.105 4.5012-10.105 10.094v22.399c0 5.5932 4.5198 10.094 10.105 10.094h16.814c5.5852 0 10.105-4.5012 10.105-10.094v-22.399c0-5.5932-4.5198-10.094-10.105-10.094z"/>
 <path d="m391.72 469.7 267.19-28.818c73.83-6.7118 153.71 39.738 177.01 77.745 38.992 73.856 44.665 149.6 52.922 231.45-2.4237 18.431 7.937 98.147 6.845 175.01-1.2518 88.878-5.0605 135.89-100.09 138.82l-375.04 7.0847c-31.41-0.42615-76.528-2.477-102.14-28.525-23.707-38.566-14.398-169.21-15.083-254.52 14.076-97.907-16.881-239.36 88.377-318.25z" fill="url(#cw)"/>
 <path d="m302.67 786.73c7.9982 186.76-32.494 275.82 89.834 281.55 132.44 7.2445 272.68 2.7966 414.91-4.6343 69.888 3.0896 87.759-47.675 88.931-115.78l-5.5665-163.91-588.08 2.77z" fill="url(#cv)" fill-rule="evenodd"/>
 <path d="m302.67 786.73c7.9982 186.76-32.494 275.82 89.834 281.55 132.44 7.2445 272.68 2.7966 414.91-4.6343 69.888 3.0896 87.759-47.675 88.931-115.78l-5.5665-163.91-588.08 2.77z" fill="url(#cu)" fill-rule="evenodd"/>
 <path d="m302.67 786.73c7.9982 186.76-35.272 279.53 89.834 281.55 132.44 7.2445 272.68 2.7966 414.91-4.6343 69.888 3.0896 87.759-47.675 88.931-115.78l-5.5665-163.91-588.08 2.77z" fill="url(#ct)" fill-rule="evenodd"/>
 <path d="m393.53 485.72 252.18-42.604c15.883 0 64.798 3.7508 64.798 11.847-77.68 170.83-108.02 244.5-78.714 339.72 9.9589 113.64 26.721 186.3-14.124 219.02-52.149 2.4315-158.15 86.087-201.3 32.282-44.957-67.359-55.201-76.309-68.212-235.57l-27.782-185.03c-0.51735-55.253 45.009-144.81 73.153-139.66z" fill="#333" opacity=".3"/>
 <path d="m395.83 586.61c-85.362 58.641-36.24 192.79-39.655 276.24l14.434 79.723 31.713-17.926v-229.68l-2.7937-86.138z" fill="url(#cy)" fill-rule="evenodd" opacity=".66509"/>
 <path d="m318.41 642.25c-10.45 101.58-13.529 184.3-9.2088 295.77 6.7255 22.867 16.814 39.008 33.265 42.422-15.081-99.408-28.506-194.78-24.057-338.19z" fill="#e6e6e6" fill-rule="evenodd"/>
 <path d="m359.15 940.95 19.452 77.631c8.4586 17.181 26.824 30.633 64.824 36.717l329.71-4.1263c53.52-6.341 60.866-43.571 71.316-69.308v-61.778z" fill="url(#cz)" fill-rule="evenodd"/>
 <path d="m596.44 450.73c374.91 11.985 219.79 555.03 241.08 605.62l14.171 9.8669 18.884-15.776c-12.099-22.493 13.536-175.43-0.36765-323.21-19.586-209.99-110.16-277.61-311.1-286.78z" fill="url(#da)" fill-rule="evenodd"/>
 <path d="m795.85 480.91c114.46 75.326 92.295 361.83 87.794 508.5-1.9659 16.684-4.5527 33.084-25.609 40.224 9.4674-173.49 32.748-457.88-73.153-543.24z" fill="#f9f9f9" opacity=".43868"/>
 <path d="m639.79 478.33c42.138-32.877 122.25 29.618 122.25 29.618 64.953 88.647 62.961 197.89 65.755 305.62l-180.61-6.4668s-71.135-279.06-7.3981-328.77z" fill="url(#db)"/>
 <path d="m637.93 480.16c203.76 22.039 162.32 213.15 203.76 341.76-31.584-117.1 37.145-359.66-201.89-357.49z" fill="#fff" fill-rule="evenodd"/>
 <path d="m650.6 478.79c43.69 0.56908 58.046 5.1735 86.319 23.229 26.824 17.15 49.51 49.562 59.805 82.982 10.295 33.421 20.125 84.483 21.651 120.67 4.1129 33.99 10.45 68.031 18.961 94.442-25.919-96.149 16.607-337.88-185.21-334.26z" fill="url(#dc)" fill-rule="evenodd"/>
 <path d="m359.15 940.95 19.452 77.631c8.4586 17.181 26.824 30.633 64.824 36.717l329.71-14.174c53.52-6.3643 60.866-33.524 71.316-59.261v-61.778z" fill="url(#dd)" fill-rule="evenodd"/>
 <path d="m675.9 855.26-14.822 15.727c5.6132 50.726-2.3281 74.343-13.891 90.768l-225.95 1.8366c-14.149-7.7861-27.109-17.383-31.506-39.81l-12.96-57.425-2.7678 14.822 12.028 106.5c0.87949 42.681 27.29 67.798 67.617 83.37l144.47-0.93122c43.276-15.831 54.037-36.214 64.824-67.617 13.348-54.502 11.149-99.667 12.96-147.24z" fill="#666" fill-rule="evenodd"/>
 <path d="m675.9 855.26-14.822 15.727c5.6132 50.726-2.3281 74.343-13.891 90.768l-225.95 1.8366c-14.149-7.7861-27.109-17.383-31.506-39.81l-12.96-57.425-2.7678 14.822 12.028 106.5c0.87949 42.681 27.29 67.798 67.617 83.37l144.47-0.93122c43.276-15.831 54.037-36.214 64.824-67.617 13.348-54.502 11.149-99.667 12.96-147.24z" fill="#666" fill-rule="evenodd"/>
 <path d="m390.66 485.72c-85.362 58.641-46.587 221.24-50.002 304.69l9.2605 30.575 47.234 2.7678v-229.68l-2.7937-86.138z" fill="url(#de)" fill-rule="evenodd"/>
 <path d="m395.29 560.74c-27.73 57.167-23.177 166.07-27.782 221.35 9.2605-63.944 18.521-155.95 27.782-188.94h4.6303c-1.2416-11.175 5.4321-32.257-4.6303-32.412z" fill="url(#df)" fill-rule="evenodd"/>
 <path d="m320.52 642.25c-12.892 108.51-13.307 224.2-8.0095 343.21l35.42 30.664c-18.604-106.16-32.931-220.72-27.411-373.88z" fill="#fff" fill-rule="evenodd"/>
 <path d="m802.79 927.49c0 20.988-16.993 38.007-37.98 38.007-20.988 0-37.98-17.019-37.98-38.007 0-20.961 16.993-37.98 37.98-37.98 20.988 0 37.98 17.019 37.98 37.98z" fill="url(#cs)"/>
 <path d="m802.79 927.49c0 20.988-16.993 38.007-37.98 38.007-20.988 0-37.98-17.019-37.98-38.007 0-20.961 16.993-37.98 37.98-37.98 20.988 0 37.98 17.019 37.98 37.98z" fill="url(#cr)"/>
 <path d="m795.36 927.49c0.026634 16.886-13.663 30.603-30.549 30.603s-30.576-13.717-30.576-30.603 13.69-30.576 30.576-30.576 30.576 13.69 30.549 30.576z" fill="#1a1a1a"/>
 <path d="m774.99 831.18c0 8.6827-7.0314 15.741-15.741 15.741-8.6827 0-15.741-7.058-15.741-15.741 0-8.6827 7.058-15.741 15.741-15.741 8.7094 0 15.741 7.058 15.741 15.741z" fill="url(#cq)"/>
 <path d="m774.99 831.18c0 8.6827-7.0314 15.741-15.741 15.741-8.6827 0-15.741-7.058-15.741-15.741 0-8.6827 7.058-15.741 15.741-15.741 8.7094 0 15.741 7.058 15.741 15.741z" fill="url(#cp)"/>
 <path d="m771.29 831.18c0 6.6585-5.3801 12.039-12.039 12.039-6.6319 0-12.039-5.3801-12.039-12.039 0-6.6585 5.4067-12.039 12.039-12.039 6.6585 0 12.039 5.3801 12.039 12.039z" fill="#f55"/>
 <path d="m771.29 831.18c0 6.6585-5.3801 12.039-12.039 12.039-6.6319 0-12.039-5.3801-12.039-12.039 0-6.6585 5.4067-12.039 12.039-12.039 6.6585 0 12.039 5.3801 12.039 12.039z" fill="url(#cg)"/>
 <path d="m771.29 831.18c0 6.6585-5.3801 12.039-12.039 12.039-6.6319 0-12.039-5.3801-12.039-12.039 0-6.6585 5.4067-12.039 12.039-12.039 6.6585 0 12.039 5.3801 12.039 12.039z" fill="url(#cf)" opacity=".52358"/>
 <path d="m789.24 463.81c2.8232 2.6101 7.3777 2.69 8.4963 7.8571l-0.63922 7.8571c-1.0121 4.3147-6.1791 6.5254-10.494 9.1621-25.382-12.119-52.389-19.283-74.655-35.343 1.3051-3.3026 3.276-8.3631 6.2324-10.813l6.2058-1.6513 9.1888 0.66585z" fill="#ccc" fill-rule="evenodd"/>
 <path d="m738.42 290.78c-10.254 51.42-14.596 99.681-12.518 156.04l57.903 26.394 6.9249-7.4043c-3.3559-55.878-8.6827-139.53-17.579-163.92-6.3389-5.5745-19.709-16.758-34.731-11.112z" fill-rule="evenodd"/>
 <rect transform="matrix(.48541 .87429 -.77553 .63131 0 0)" x="872.83" y="-471.34" width="3.6102" height="7.6791" rx="4.127" ry="4.4394" fill="#333"/>
 <rect transform="matrix(.92426 .38177 -.43405 .90089 0 0)" x="840.69" y="146.55" width="79.584" height="10.289" rx="4.8732" ry="4.8694" fill="#e6e6e6"/>
 <rect transform="matrix(.51141 -.85934 .91903 .3942 0 0)" x="-143.94" y="851.65" width="6.1864" height="81.553" rx="4.8274" ry="4.8254" fill="#f2f2f2" opacity=".46226"/>
 <path d="m743.98 291.72 23.617 12.494c6.0788 50.855 9.2088 104.71 12.96 157.89 0 0-43.845-16.348-45.837-17.59-5.846-3.6732 0.49148-153.26 9.2605-152.8z" fill="url(#dg)" fill-rule="evenodd" opacity=".39623"/>
 <rect transform="matrix(.91552 .40228 -.36579 .9307 0 0)" x="831.54" y="117.38" width="70.642" height="5.8623" rx="4.9049" ry="4.9058" fill="#f2f2f2"/>
 <path transform="matrix(2.5867 0 0 2.5867 27.61 -43.712)" d="m274.79 129.31c-3.97 19.88-5.64 38.54-4.84 60.33l22.38 10.2 2.69-2.86c-1.31-21.6-3.36-54.84-6.81-63.37-2.44-2.16-7.61-6.48-13.42-4.3z" clip-path="url(#ck)" fill-rule="evenodd"/>
 <path d="m738.29 865.96c-0.66585 0-1.2518-0.13317-1.7845-0.39951-0.53268-0.26634-0.98546-0.61259-1.3583-1.092-0.34624-0.47941-0.63922-1.0387-0.82566-1.7046-0.18644-0.66585-0.29298-1.4116-0.29298-2.2373 0-0.77239 0.10654-1.4649 0.31961-2.1041 0.21307-0.63922 0.50605-1.1985 0.87893-1.678 0.37288-0.45278 0.82566-0.82566 1.3317-1.0654 0.53268-0.26634 1.092-0.39951 1.7312-0.39951 0.61259 0 1.1453 0.13317 1.598 0.37288 0.50605 0.23971 0.90556 0.55932 1.2252 0.93219l-1.4915 1.2784c-0.13317-0.18644-0.29298-0.31961-0.50605-0.39951-0.18644-0.10654-0.45278-0.1598-0.82566-0.1598-0.69249 0-1.2518 0.29298-1.6513 0.90556-0.37288 0.58595-0.58595 1.3583-0.58595 2.3438 0 2.2373 0.74576 3.3559 2.2373 3.3559 0.58595 0 1.0654-0.21307 1.4649-0.63922l1.6513 1.1719c-0.82566 1.0121-1.8644 1.5181-3.1162 1.5181m10.494-6.6319c0-0.66585-0.1598-1.1719-0.53268-1.4915-0.34624-0.34624-0.77239-0.50605-1.3051-0.50605-0.21307 0-0.45278 0.053268-0.66585 0.1598-0.21307 0.079902-0.39951 0.23971-0.58595 0.42615-0.1598 0.18644-0.29298 0.37288-0.39951 0.61259-0.10654 0.26634-0.1598 0.50605-0.1598 0.79902v6.4188h-1.9709v-12.518l1.9709-1.2518v4.9273c0.1598-0.42615 0.45278-0.79902 0.85229-1.092 0.42615-0.29298 0.95883-0.45278 1.6513-0.45278 0.42615 0 0.82566 0.079902 1.2252 0.29298 0.37288 0.1598 0.71912 0.42615 0.98546 0.77239 0.29298 0.31961 0.50605 0.71912 0.66585 1.1719 0.18644 0.47941 0.26634 0.98546 0.26634 1.5181v6.6319h-1.9976v-6.4188m9.0556 2.1307c0-0.13317-0.053268-0.23971-0.18644-0.34624-0.079902-0.13317-0.21307-0.23971-0.37288-0.31961-0.1598-0.10654-0.34624-0.18644-0.50605-0.21307-0.18644-0.053268-0.34624-0.079902-0.50605-0.079902-1.385 0-2.0508 0.55932-2.0508 1.7046 0 0.47941 0.1598 0.87893 0.53268 1.1985 0.37288 0.26634 0.79902 0.42615 1.3051 0.42615 0.1598 0 0.31961-0.026634 0.53268-0.079902 0.18644-0.053268 0.39951-0.10654 0.55932-0.18644 0.21307-0.10654 0.37288-0.21307 0.47941-0.34624 0.13317-0.13317 0.21307-0.26634 0.21307-0.45278v-1.3051m0.026634 3.4092c-0.1598 0.23971-0.45278 0.45278-0.87893 0.66585s-0.93219 0.31961-1.5181 0.31961c-0.45278 0-0.87893-0.079902-1.2784-0.23971-0.39951-0.1598-0.74576-0.39951-1.0387-0.69249-0.29298-0.31961-0.53268-0.71912-0.69249-1.1453-0.1598-0.45278-0.23971-0.95883-0.23971-1.5181 0-1.1453 0.31961-2.0508 0.98546-2.6634 0.66585-0.61259 1.5448-0.90556 2.6101-0.90556 0.50605 0 0.93219 0.079902 1.2518 0.21307 0.31961 0.13317 0.58595 0.29298 0.77239 0.50605 0-0.42615-0.053268-0.77239-0.1598-1.0387-0.079902-0.26634-0.18644-0.47941-0.34624-0.61259-0.1598-0.1598-0.37288-0.26634-0.63922-0.29298-0.23971-0.079902-0.50605-0.10654-0.82566-0.10654-0.37288 0-0.69249 0.053268-0.95883 0.18644-0.26634 0.13317-0.47941 0.26634-0.69249 0.45278l-0.90556-1.5181c0.31961-0.37288 0.71912-0.63922 1.2252-0.82566 0.47941-0.21307 1.0121-0.29298 1.598-0.29298 1.1186 0 1.9976 0.34624 2.69 1.0121 0.66585 0.66585 1.0121 1.5714 1.0121 2.7167v6.6585h-1.9709v-0.87893m8.3365-7.2445c-0.31961-0.18644-0.55932-0.26634-0.71912-0.26634-0.53268 0-0.90556 0.21307-1.1186 0.61259-0.23971 0.37288-0.34624 0.85229-0.34624 1.4382v6.3389h-1.9709v-10.307h1.9709v1.2518c0.10654-0.42615 0.34624-0.74576 0.69249-0.98546 0.34624-0.21307 0.74576-0.31961 1.1719-0.31961 0.37288 0 0.71912 0.079902 0.98546 0.26634l-0.66585 1.9709m6.845 1.678c-0.026634-0.37288-0.079902-0.66585-0.21307-0.93219-0.10654-0.26634-0.23971-0.45278-0.39951-0.61259-0.1598-0.1598-0.34624-0.26634-0.53268-0.31961-0.18644-0.079902-0.34624-0.13317-0.50605-0.13317-0.82566 0-1.4116 0.29298-1.7845 0.82566-0.34624 0.55932-0.53268 1.3317-0.53268 2.3438 0 1.0654 0.1598 1.891 0.47941 2.477 0.31961 0.61259 0.82566 0.90556 1.4915 0.90556 0.61259 0 1.092-0.1598 1.4649-0.45278 0.34624-0.31961 0.53268-0.74576 0.53268-1.3051v-2.7966m-2.2106 8.7893c1.4382-0.31961 2.1574-1.385 2.1574-3.1428-0.10654 0.13317-0.21307 0.23971-0.31961 0.34624-0.10654 0.10654-0.21307 0.18644-0.37288 0.29298-0.1598 0.079902-0.34624 0.13317-0.58595 0.18644-0.23971 0.053268-0.50605 0.079902-0.87893 0.079902-0.66585 0-1.2252-0.13317-1.7046-0.39951-0.47941-0.29298-0.85229-0.69249-1.1985-1.1719-0.29298-0.50605-0.53268-1.0654-0.69249-1.7046-0.13317-0.66585-0.21307-1.385-0.21307-2.1307 0-0.69249 0.10654-1.3317 0.29298-1.9443 0.21307-0.63922 0.47941-1.1719 0.82566-1.6247 0.34624-0.47941 0.74576-0.82566 1.2252-1.092 0.47941-0.26634 1.0121-0.39951 1.5714-0.39951 0.58595 0 1.0387 0.079902 1.3583 0.26634 0.31961 0.1598 0.55932 0.37288 0.74576 0.58595v-0.79902h1.9709v8.736c0 0.77239-0.079902 1.5181-0.26634 2.184-0.1598 0.69249-0.39951 1.3051-0.74576 1.8378-0.31961 0.53268-0.74576 0.95883-1.2252 1.3317-0.47941 0.37288-1.0654 0.61259-1.7046 0.71912l-0.23971-2.1574m9.5883-10.973c-0.63922 0-1.1719 0.26634-1.5714 0.77239-0.39951 0.50605-0.61259 1.1186-0.63922 1.8644h4.2615c-0.026634-0.74576-0.23971-1.3583-0.61259-1.8644-0.37288-0.50605-0.85229-0.77239-1.4382-0.77239m-2.2106 4.6077c0 0.34624 0.053268 0.63922 0.18644 0.90556 0.13317 0.26634 0.31961 0.50605 0.53268 0.69249s0.45278 0.31961 0.71912 0.39951c0.26634 0.079902 0.53268 0.13317 0.82566 0.13317 0.34624 0 0.66585-0.053268 0.90556-0.1598 0.26634-0.079902 0.50605-0.26634 0.69249-0.50605l1.3317 1.2518c-0.37288 0.50605-0.82566 0.87893-1.3317 1.092-0.50605 0.23971-1.0654 0.34624-1.678 0.34624-1.4116 0-2.477-0.45278-3.1961-1.3583-0.69249-0.90556-1.0387-2.184-1.0387-3.8353 0-0.82566 0.10654-1.598 0.29298-2.2639 0.21307-0.69249 0.47941-1.2784 0.85229-1.7579 0.37288-0.47941 0.82566-0.85229 1.3583-1.1186 0.53268-0.26634 1.1186-0.37288 1.7845-0.37288 1.1985 0 2.184 0.42615 2.9031 1.3051 0.74576 0.90556 1.1186 2.2106 1.1186 3.9685v0.74576c0 0.10654 0 0.18644-0.026634 0.29298 0 0.079902 0 0.1598-0.026634 0.23971h-6.2058"/>
 <path d="m720.81 982.41h-1.7312v-8.0435h-1.0654v-1.891h1.0654c0-1.1186 0.21307-1.9976 0.63922-2.6101 0.45278-0.63922 1.1186-0.93219 1.9976-0.93219 0.31961 0 0.61259 0.026634 0.93219 0.053268v1.7579c-0.23971-0.053268-0.53268-0.10654-0.79902-0.10654-0.42615 0-0.71912 0.13317-0.87893 0.39951-0.1598 0.26634-0.23971 0.71912-0.23971 1.4382h1.9443v1.891h-1.8644v8.0435m3.0629-9.9345h1.9177v9.9345h-1.9177v-9.9345m0.95883-1.0387c-0.31961 0-0.58595-0.10654-0.79902-0.37288-0.18644-0.23971-0.26634-0.53268-0.26634-0.90556s0.079902-0.69249 0.26634-0.93219c0.18644-0.23971 0.45278-0.37288 0.79902-0.37288 0.29298 0 0.53268 0.13317 0.74576 0.37288 0.21307 0.23971 0.31961 0.55932 0.31961 0.93219 0 0.37288-0.10654 0.66585-0.31961 0.90556-0.21307 0.26634-0.45278 0.37288-0.74576 0.37288m8.6028 4.7941c0-0.63922-0.13317-1.1453-0.42615-1.4649-0.29298-0.34624-0.71912-0.50605-1.2518-0.50605-0.50605 0-0.95883 0.1598-1.3317 0.50605-0.31961 0.31961-0.50605 0.82566-0.50605 1.4649v6.1791h-1.891v-9.9345h1.891v1.2252c0.23971-0.45278 0.55932-0.77239 0.98546-1.0121 0.42615-0.21307 0.93219-0.31961 1.5181-0.31961 0.87893 0 1.598 0.31961 2.1041 0.95883 0.55932 0.61259 0.82566 1.4649 0.82566 2.5302v6.552h-1.9177v-6.1791m9.4285-0.053268c-0.079902-0.37288-0.29298-0.74576-0.63922-1.092-0.31961-0.34624-0.71912-0.53268-1.1985-0.53268-0.79902 0-1.3583 0.26634-1.7046 0.79902-0.31961 0.53268-0.50605 1.3051-0.50605 2.3438 0 0.85229 0.18644 1.5181 0.53268 2.0508 0.37288 0.53268 0.93219 0.79902 1.6247 0.79902 0.42615 0 0.79902-0.13317 1.1719-0.37288 0.39951-0.26634 0.63922-0.66585 0.71912-1.1985v-2.7966m0 5.1937c-0.13317 0.21307-0.37288 0.47941-0.69249 0.74576-0.31961 0.26634-0.79902 0.39951-1.4382 0.39951-0.55932 0-1.0654-0.10654-1.5448-0.37288-0.45278-0.23971-0.85229-0.58595-1.1985-1.0121-0.31961-0.42615-0.58595-0.95883-0.79902-1.5448-0.18644-0.61259-0.26634-1.2518-0.26634-1.9177 0-0.74576 0.079902-1.4116 0.26634-2.0508 0.18644-0.66585 0.45278-1.2252 0.77239-1.678 0.34624-0.47941 0.74576-0.85229 1.1985-1.1186 0.45278-0.29298 0.93219-0.42615 1.4915-0.42615 1.1453 0 1.891 0.31961 2.2106 0.93219v-3.2494l1.9177-0.85229v13.157h-1.9177v-1.0121m14.915-5.167c0-0.63922-0.1598-1.1186-0.50605-1.4382-0.34624-0.31961-0.74576-0.47941-1.2518-0.47941-0.21307 0-0.42615 0.053268-0.63922 0.13317-0.21307 0.10654-0.39951 0.23971-0.55932 0.42615-0.1598 0.1598-0.29298 0.37288-0.39951 0.61259-0.10654 0.21307-0.1598 0.47941-0.1598 0.74576v6.2058h-1.891v-12.092l1.891-1.1985v4.7409c0.1598-0.42615 0.42615-0.77239 0.82566-1.0387 0.39951-0.29298 0.93219-0.45278 1.5714-0.45278 0.42615 0 0.82566 0.10654 1.1985 0.29298 0.37288 0.1598 0.69249 0.39951 0.95883 0.74576 0.26634 0.29298 0.50605 0.69249 0.63922 1.1186 0.1598 0.45278 0.23971 0.95883 0.23971 1.4915v6.3922h-1.9177v-6.2058m7.3777-2.1307c-0.61259 0-1.1186 0.23971-1.5181 0.74576-0.37288 0.47941-0.58595 1.0654-0.61259 1.7845h4.1283c-0.053268-0.71912-0.23971-1.3051-0.58595-1.7845-0.37288-0.50605-0.82566-0.74576-1.4116-0.74576m-2.1307 4.4479c0 0.31961 0.053268 0.61259 0.18644 0.87893 0.13317 0.23971 0.29298 0.47941 0.50605 0.66585 0.21307 0.1598 0.45278 0.29298 0.69249 0.37288 0.26634 0.079902 0.53268 0.13317 0.79902 0.13317 0.34624 0 0.63922-0.053268 0.87893-0.13317 0.26634-0.10654 0.50605-0.26634 0.69249-0.50605l1.2784 1.1985c-0.37288 0.47941-0.82566 0.85229-1.3051 1.0654-0.47941 0.21307-1.0387 0.31961-1.6247 0.31961-1.3583 0-2.3704-0.42615-3.0629-1.3051-0.66585-0.85229-1.0121-2.1041-1.0121-3.7021 0-0.79902 0.10654-1.5181 0.29298-2.184 0.18644-0.66585 0.45278-1.2252 0.79902-1.7046 0.37288-0.45278 0.79902-0.82566 1.3051-1.0654 0.53268-0.23971 1.092-0.37288 1.7312-0.37288 1.1719 0 2.1041 0.42615 2.8232 1.2784 0.71912 0.85229 1.0654 2.1307 1.0654 3.8353v0.71912c0 0.079902 0 0.18644-0.026634 0.26634 0 0.079902 0 0.1598-0.026634 0.23971h-5.9927m12.891-0.26634c0-0.10654-0.053268-0.23971-0.1598-0.34624-0.079902-0.10654-0.21307-0.21307-0.37288-0.29298-0.1598-0.10654-0.31961-0.1598-0.47941-0.21307-0.18644-0.053268-0.34624-0.079902-0.50605-0.079902-1.3051 0-1.9709 0.55932-1.9709 1.6513 0 0.47941 0.18644 0.85229 0.50605 1.1453 0.37288 0.29298 0.79902 0.42615 1.2784 0.42615 0.13317 0 0.31961-0.026634 0.50605-0.079902 0.18644-0.026634 0.37288-0.10654 0.55932-0.18644 0.18644-0.079902 0.34624-0.18644 0.45278-0.31961 0.13317-0.13317 0.18644-0.26634 0.18644-0.42615v-1.2784m0.026634 3.3026c-0.1598 0.21307-0.42615 0.42615-0.82566 0.63922s-0.90556 0.29298-1.4649 0.29298c-0.45278 0-0.85229-0.079902-1.2518-0.21307-0.37288-0.1598-0.69249-0.39951-0.98546-0.69249-0.29298-0.29298-0.50605-0.66585-0.69249-1.092-0.13317-0.42615-0.21307-0.90556-0.21307-1.4649 0-1.1186 0.31961-1.9709 0.93219-2.5569 0.66585-0.58595 1.5181-0.87893 2.5569-0.87893 0.47941 0 0.87893 0.053268 1.1719 0.21307 0.34624 0.10654 0.58595 0.26634 0.74576 0.47941 0-0.42615-0.026634-0.74576-0.13317-1.0121-0.079902-0.23971-0.18644-0.45278-0.34624-0.58595-0.1598-0.1598-0.34624-0.23971-0.61259-0.29298-0.23971-0.053268-0.47941-0.079902-0.79902-0.079902-0.34624 0-0.66585 0.053268-0.90556 0.18644-0.26634 0.10654-0.47941 0.23971-0.69249 0.39951l-0.85229-1.4649c0.29298-0.31961 0.69249-0.58595 1.1719-0.77239 0.45278-0.18644 0.98546-0.29298 1.5448-0.29298 1.0654 0 1.9443 0.31961 2.5835 0.98546 0.66585 0.63922 0.98546 1.5181 0.98546 2.6368v6.4188h-1.9177v-0.85229m9.4551-5.3801c-0.10654-0.37288-0.31961-0.74576-0.66585-1.092-0.31961-0.34624-0.71912-0.53268-1.1985-0.53268-0.79902 0-1.3583 0.26634-1.7046 0.79902-0.31961 0.53268-0.47941 1.3051-0.47941 2.3438 0 0.85229 0.1598 1.5181 0.53268 2.0508 0.37288 0.53268 0.90556 0.79902 1.598 0.79902 0.42615 0 0.82566-0.13317 1.1985-0.37288 0.37288-0.26634 0.61259-0.66585 0.71912-1.1985v-2.7966m0 5.1937c-0.1598 0.21307-0.37288 0.47941-0.71912 0.74576-0.31961 0.26634-0.79902 0.39951-1.4382 0.39951-0.55932 0-1.0654-0.10654-1.5181-0.37288-0.47941-0.23971-0.87893-0.58595-1.2252-1.0121-0.31961-0.42615-0.58595-0.95883-0.79902-1.5448-0.18644-0.61259-0.26634-1.2518-0.26634-1.9177 0-0.74576 0.079902-1.4116 0.26634-2.0508 0.18644-0.66585 0.45278-1.2252 0.77239-1.678 0.34624-0.47941 0.74576-0.85229 1.1985-1.1186 0.45278-0.29298 0.93219-0.42615 1.4915-0.42615 1.1719 0 1.891 0.31961 2.2373 0.93219v-3.2494l1.891-0.85229v13.157h-1.891v-1.0121m4.3147-1.4649c0.29298 0.21307 0.66585 0.37288 1.1453 0.50605 0.47941 0.10654 0.95883 0.18644 1.385 0.18644 0.47941 0 0.87893-0.079902 1.1719-0.26634 0.34624-0.18644 0.50605-0.47941 0.50605-0.87893 0-0.29298-0.10654-0.50605-0.31961-0.69249-0.18644-0.18644-0.45278-0.34624-0.74576-0.50605-0.31961-0.1598-0.66585-0.29298-1.0654-0.42615-0.37288-0.1598-0.71912-0.29298-1.0654-0.47941-0.45278-0.21307-0.87893-0.47941-1.1985-0.82566-0.34624-0.34624-0.50605-0.82566-0.50605-1.4116 0-0.47941 0.10654-0.90556 0.31961-1.2518s0.47941-0.63922 0.82566-0.85229c0.34624-0.23971 0.74576-0.39951 1.1985-0.50605 0.42615-0.10654 0.87893-0.1598 1.3317-0.1598 0.53268 0 1.0387 0.10654 1.5181 0.29298 0.50605 0.1598 0.87893 0.31961 1.092 0.47941l-0.58595 1.9709c-0.23971-0.21307-0.58595-0.39951-0.95883-0.55932-0.37288-0.13317-0.79902-0.21307-1.2518-0.21307-0.13317 0-0.31961 0-0.47941 0.026634-0.1598 0-0.34624 0.053268-0.47941 0.10654-0.1598 0.053268-0.26634 0.13317-0.34624 0.26634-0.10654 0.10654-0.1598 0.23971-0.1598 0.42615s0.10654 0.34624 0.26634 0.47941c0.18644 0.10654 0.42615 0.23971 0.69249 0.34624 0.29298 0.10654 0.58595 0.21307 0.93219 0.34624 0.34624 0.10654 0.66585 0.23971 1.0121 0.39951 0.23971 0.10654 0.47941 0.26634 0.69249 0.39951 0.23971 0.1598 0.42615 0.34624 0.61259 0.55932 0.1598 0.21307 0.29298 0.45278 0.39951 0.74576 0.10654 0.23971 0.1598 0.55932 0.1598 0.93219 0 0.55932-0.079902 1.0387-0.29298 1.4649-0.18644 0.39951-0.47941 0.71912-0.82566 0.98546-0.34624 0.23971-0.77239 0.42615-1.2518 0.55932-0.45278 0.10654-0.95883 0.1598-1.4915 0.1598-0.45278 0-0.93219-0.053268-1.4382-0.18644-0.47941-0.13317-0.98546-0.34624-1.4915-0.63922l0.69249-1.7845m11.559-5.8329c-0.63922 0-1.1453 0.23971-1.5181 0.74576-0.39951 0.47941-0.61259 1.0654-0.63922 1.7845h4.1283c-0.026634-0.71912-0.21307-1.3051-0.58595-1.7845-0.34624-0.50605-0.82566-0.74576-1.385-0.74576m-2.1574 4.4479c0 0.31961 0.079902 0.61259 0.18644 0.87893 0.1598 0.23971 0.31961 0.47941 0.53268 0.66585 0.21307 0.1598 0.42615 0.29298 0.69249 0.37288 0.26634 0.079902 0.53268 0.13317 0.77239 0.13317 0.34624 0 0.63922-0.053268 0.90556-0.13317 0.26634-0.10654 0.47941-0.26634 0.66585-0.50605l1.2784 1.1985c-0.37288 0.47941-0.79902 0.85229-1.3051 1.0654-0.47941 0.21307-1.0121 0.31961-1.598 0.31961-1.3583 0-2.3971-0.42615-3.0896-1.3051-0.66585-0.85229-0.98546-2.1041-0.98546-3.7021 0-0.79902 0.079902-1.5181 0.26634-2.184 0.18644-0.66585 0.47941-1.2252 0.82566-1.7046 0.34624-0.45278 0.79902-0.82566 1.3051-1.0654 0.50605-0.23971 1.092-0.37288 1.7312-0.37288 1.1453 0 2.1041 0.42615 2.7966 1.2784 0.71912 0.85229 1.092 2.1307 1.092 3.8353v0.71912c0 0.079902-0.026634 0.18644-0.026634 0.26634 0 0.079902-0.026634 0.1598-0.026634 0.23971h-6.0193m12.172 3.8619c-0.29298 0.053268-0.53268 0.10654-0.71912 0.10654-0.18644 0.053268-0.39951 0.053268-0.61259 0.053268-0.74576 0-1.3317-0.26634-1.7579-0.82566-0.39951-0.55932-0.58595-1.3583-0.58595-2.3704v-4.9806h-1.0654v-1.891h1.0654v-1.8111l1.891-1.0654v2.8765h1.8111v1.891h-1.8111v4.2615c0 0.42615 0.026634 0.77239 0.053268 1.0387 0.053268 0.23971 0.10654 0.42615 0.18644 0.58595 0.10654 0.13317 0.21307 0.23971 0.34624 0.29298 0.1598 0.053268 0.34624 0.079902 0.55932 0.079902 0.13317 0 0.29298-0.026634 0.45278-0.079902l0.47941-0.1598-0.29298 1.9976"/>
 <path d="m425.45 968.36 207.61-6.3892c-4.6044 14.667-3.7508 28.739-2.7678 33.834l0.93122 17.383c-0.93122 6.6738-6.1306 13.71-13.736 13.71h-173.75c-7.605 0-13.71-6.1047-13.71-13.71l-1.8366-11.899c0-7.605-3.9318-17.383-2.7419-32.929z" fill="#808080" opacity=".66509"/>
 <rect x="442.81" y="979.35" width="173.76" height="53.959" rx="15.332" ry="11.241" fill="#fff"/>
 <rect x="444.64" y="990.32" width="170.11" height="31.095" rx="13.718" ry="13.718" fill="#f2f2f2"/>
 <rect x="460.19" y="998.54" width="71.334" height="14.633" rx="13.718" ry="13.718" fill="#fff"/>
 <path d="m383.26 896.01 18.521 132.44c13.27 17.254 28.144 28.92 50.933 33.343l138.91 0.90536c28.816-0.20694 54.425-22.893 59.288-47.234-1.2675-33.602 4.1905-61.875 12.96-90.743l-29.644 37.042v51.864l-9.2605 10.192-9.2605-23.151-169.48-9.2605-2.7678 27.782-14.822 16.659-11.123-27.782-7.3981-46.303-12.96-16.684z" fill="#e6e6e6" fill-rule="evenodd"/>
 <path d="m373.07 862.66c8.8208 49.019 21.211 63.711 40.741 100.03-3.0006-33.731-9.7261-58.124-8.3293-102.8-10.813-0.51735-21.625-12.106-32.412 2.7678z" fill="url(#dh)" fill-rule="evenodd" opacity=".60377"/>
 <path d="m527.47 613.33h107.43c6.0788 0-69.247 48.294 10.942 3.9318 27.29 89.63 15.417 249.1 7.7602 289.61-15.52 33.214-46.251 40.146-52.33 40.146l-73.8-28.454c-6.0788 0-10.968-1.759-10.968-3.9318v-297.37c0-2.1987 4.8889-3.9318 10.968-3.9318z" opacity=".6"/>
 <path d="m425.89 223.18c61.205-19.89 118.73-22.647 189.02-3.8806 16.114 5.9154 27.193 23.659 27.646 38.505 10.627 52.877 14.782 107.92 14.942 164.28l-6.6585 162.34-1.4116 160.34 0.53268 167.56c-1.385 26.448-3.3825 49.912-39.419 52.23h-174.93c-18.878-0.93219-33.389-16.993-38.02-44.799l-0.80968-138.28c0.39951-59.687 1.5661-120.52-0.34624-176.72 0.51138-64.242-6.3922-113.73-11-170.7-0.49273-72.498 10.204-123.52 16.787-177.16 0.92687-11.144 8.0249-31.849 23.664-33.7z" fill="#808080"/>
 <path d="m423.36 229.2c60.555-21.263 143.64-21.599 195.38 0.64668 10.606 4.5268 9.0018 11.589 10.295 15.883 13.58 79.309 13.787 118.39 0 247.58 0 5.5873-4.8631 10.088-10.942 10.088-39.862 224.76-145.32 230.43-192.79 0-6.0788 0-10.968-4.5009-10.968-10.088-13.71-85.181-13.736-165.37-5.1735-243.7 0.64668-8.1741 8.1223-20.409 14.201-20.409z" fill="url(#di)"/>
 <path d="m423.61 1014.1c2.2505-11.356 6.0012-19.737 3.6732-40.224-7.0359-10.606-11.304-9.7003-16.477-11.899 9.3381 16.348 9.8037 38.542 12.804 52.123z" fill="#fff" fill-rule="evenodd"/>
 <path d="m667.57 864.53c-8.588 34.688-4.7596 79.025-33.343 98.167l-210.22 4.6303-18.521-8.3552-13.891-22.22 24.082 18.521 17.59 5.5615 188-4.6303c39.034-7.0877 28.454-52.355 37.973-89.837l12.96-3.699z" fill="#999" fill-rule="evenodd"/>
 <path d="m658.31 934.91-27.782 30.549c3.518 85.75 12.494 58.874 15.753 0z" fill="#fff" fill-rule="evenodd"/>
 <path d="m389.73 1015.5c-8.0965-47.829-14.951-95.683-15.727-143.54 10.011 47.855 12.96 95.709 15.727 143.54z" fill="#fff" fill-rule="evenodd"/>
 <path d="m671.27 869.16c2.0694 48.501-4.2422 91.415-9.2605 135.21z" fill="#fff" fill-rule="evenodd"/>
 <path d="m431.84 969.29 195.71-5.4839-19.194 6.3892-160.04 3.6732z" fill="#f9f9f9" fill-rule="evenodd"/>
 <rect transform="matrix(.99394 .10993 -.10741 .99422 0 0)" x="949.26" y="724.87" width="22.995" height="211" rx="19.034" ry="10.083" fill="#fff" opacity=".6"/>
 <path d="m665.5 871.63c0.025867 5.4063-3.2593 9.8037-7.3205 9.8037s-7.3463-4.3974-7.3205-9.8037c-0.025867-5.3804 3.2593-9.7779 7.3205-9.7779s7.3463 4.3974 7.3205 9.7779z" fill="url(#ci)"/>
 <path d="m433.26 958.97c-18.806-122.61-11.433-252.67-14.822-379.71-12.675-82.413-14.279-162.63-14.822-242.64-1.8883 74.084-6.1823 147.68 3.699 224.11 2.1729 125.35-3.5438 250.68 7.4239 376.01 2.6902 17.874 11.149 18.443 18.521 22.22z" fill="#fff" fill-rule="evenodd"/>
 <path d="m613.22 958.98c18.806-122.61 11.433-252.7 14.822-379.71 12.675-82.439 14.305-162.65 14.822-242.66 1.8883 74.084 6.1823 147.7-3.699 224.14-2.147 125.33 3.5697 250.65-7.4239 376.01-2.6902 17.848-11.123 18.443-18.521 22.22z" fill="#fff" fill-rule="evenodd"/>
 <path d="m430.94 562.32c-0.98296-19.892 40.25-17.59 40.25 2.7419 0 13.632-39.396 14.667-40.25-2.7419z" fill-rule="evenodd"/>
 <path d="m429.41 600.29c-0.95709 19.892 40.25 17.59 40.25-2.7419 0-13.632-39.396-14.693-40.25 2.7419z" fill-rule="evenodd"/>
 <path d="m446.74 935.97c-14.744-86.733-25.867-149.23-19.659-221.99 0.98296-94.545-9.1829-161.28-14.408-240.33 92.114-147.39 138.29-147.62 223.99 2.6126-5.6649 77.783-18.185 150.42-11.149 237.72 2.7937 77.602-2.5867 148.76-13.736 229.86-46.613 19.142-118.76 17.021-165.03-7.8637z" fill="url(#cj)" fill-rule="evenodd"/>
 <path d="m578.72 581.1c1.2675 46.665 39.086 33.99 43.328 2.5867 1.164-18.236-8.3034-31.351-25.867-34.274-14.874 2.8195-16.969 18.03-17.46 31.687z" fill-rule="evenodd"/>
 <path d="m446.74 962.17c-33.265-0.80189-42.474-25.635-44.544-57.632l-3.9318-144.08 1.3192 162.42c2.7161 15.055 6.5703 34.378 31.429 40.586z" fill-rule="evenodd"/>
 <path d="m606.52 958.24c25.453 1.0347 48.527-1.371 44.544-87.768-4.3974 36.99 5.7425 83.681-44.544 87.768z" fill-rule="evenodd"/>
 <rect transform="matrix(.99989 -.014704 0 1 0 0)" x="436.29" y="965.96" width="178.14" height="3.9292" rx="10.949" ry="3.9292" opacity=".6"/>
 <path d="m520.79 220.86c-31.748 0.546-63.086 6.4987-80.03 25.14-8.0062 8.4057-13.498 19.89-13.498 22.069-8.2113 12.377-15.317 52.208-17.784 101.38-2.469 49.14 10.049 125.02 17.784 141.61 0 2.184 10.667 13.663 19.965 18.191 7.9423 5.3535 20.482 13.53 28.312 17.286 16.753 7.058 15.075 11.746 9.5617 25.302l-1.891 6.0193c-0.50605 2.7167-0.34624 4.1283-0.34624 7.0048 0 24.264 19.709 43.973 44 43.973 24.264 0 43.973-19.709 43.973-43.973 0-6.3123-1.3317-12.278-3.7288-17.712-3.1695-10.467-0.61259-17.286 8.4164-20.348 9.9079-4.1816 19.576-9.5883 29.005-16.273 8.1767-5.5665 12.172-9.242 19.336-19.47 8.2832-14.542 15.661-78.997 15.501-119.56-0.1598-40.564-5.9128-96.597-18.75-123.43 0-2.1787-5.4866-12.369-10.92-18.188-15.421-23.177-48.687-28.874-82.513-29.021-2.1307-0.0079902-4.2881-0.037288-6.3922-9e-14z"/>
 <path d="m520.87 226.04c-31.162 0.53801-61.131 6.7438-76.309 23.443-0.026634 0.026634-0.053268 0.053268-0.082566 0.079902-3.5983 3.782-6.7677 8.4776-8.973 12.369-1.1 1.947-1.9629 3.6515-2.5036 4.93-0.54067 1.2784-0.56731 2.8419-0.56731 1.2145-0.013317 1.0094-0.32227 1.9922-0.88958 2.8285-3.0736 4.6343-7.2045 17.555-10.265 34.92-3.0603 17.365-5.4041 39.472-6.6292 63.869-1.2065 23.997 1.2571 55.079 5.0125 82.033 1.8777 13.477 4.0377 26.022 6.2244 36.063s4.5411 17.845 6.0619 21.094c0.10387 0.26634 0.18378 0.53268 0.24237 0.79902 0.0079902 0.026634 0.069249 0.079902 0.079902 0.079902 0.0026634 0.026634 0.0026634 0.053268 0 0.079902 0.15181 0.26634 0.46876 0.61259 0.88958 1.1453 0.94818 1.1985 2.429 2.8765 4.2055 4.6077 3.5503 3.4358 8.3205 7.1912 12.124 9.0556 0.22373 0.079902 0.43946 0.18644 0.64721 0.31961 7.8704 5.3268 20.527 13.477 27.638 16.886 0.026634 0.026634 0 0.079902 0 0.079902 4.2615 1.8111 7.644 3.5157 10.281 5.5932 2.69 2.1041 4.7409 4.7941 5.5665 7.9103 1.598 6.0992-0.93219 11.373-3.6222 17.951-0.079902 0.1598-0.10654 0.26634-0.1598 0.39951l-1.5448 5.0072v0.079902c-0.39951 2.0775-0.23971 2.9031-0.23971 5.9927 0 21.494 17.312 38.806 38.806 38.806 21.467 0 38.779-17.312 38.779-38.806 0-5.5665-1.1186-10.813-3.2227-15.608-0.10654-0.21307-0.18644-0.42615-0.23971-0.63922-1.7845-5.9128-2.2373-11.399-0.23971-16.327 1.9443-4.8208 6.2324-8.2832 11.559-10.201v-0.079902c9.535-3.9951 18.884-9.1888 28.046-15.661l0.079902-0.079902c7.8571-5.3801 11.027-8.2566 17.872-17.951 1.4116-2.5569 3.4624-9.029 5.2469-17.472 1.8111-8.4963 3.5157-19.07 4.9273-30.469 2.8499-22.799 4.6077-48.927 4.5278-68.876-0.1598-40.084-6.3922-96.314-18.271-121.17-0.31961-0.7058-0.47941-1.4809-0.47941-2.2612 0 1.6273 0 0.22905-0.47941-0.88958-0.50605-1.1186-1.3317-2.6421-2.2639-4.2854-1.9177-3.2867-4.5278-7.0101-6.7917-9.4578-0.18644-0.22639-0.34624-0.47142-0.47941-0.72711-6.8982-10.329-17.898-16.902-31.615-21.017s-30.017-5.5852-46.636-5.6598c-2.1574-0.0079902-4.3147-0.034624-6.3123-2.2e-12z" fill="url(#co)" opacity=".4"/>
 <path d="m496.69 565.37c9.2864-24.6 24.005-20.901 39.37-13.891-16.762-3.3628-28.713 3.8025-39.37 13.891z" fill="#e6e6e6" fill-rule="evenodd"/>
 <path d="m555.97 581.83c0 16.753-13.903 30.336-31.029 30.336-17.152 0-31.029-13.583-31.029-30.336 0-16.78 13.876-30.363 31.029-30.363 17.126 0 31.029 13.583 31.029 30.363z" fill="#b3b3b3"/>
 <path d="m520.77 620.49c14.46 4.9924 33.679 0.46561 41.233-24.082-12.08 14.175-25.453 23.462-41.233 24.082z" fill="#fff" fill-rule="evenodd"/>
 <path d="m555.97 581.83c0 16.753-13.903 30.336-31.029 30.336-17.152 0-31.029-13.583-31.029-30.336 0-16.78 13.876-30.363 31.029-30.363 17.126 0 31.029 13.583 31.029 30.363z" fill="url(#cn)"/>
 <path d="m510.94 592.01c-0.43974 0.10347-0.82775 0.1552-1.1123 0.18107-0.28454 0.051735-0.59495 0.077602-0.93122 0.077602-1.164 0-2.0694-0.43974-2.7161-1.3192-0.64668-0.85362-0.95709-2.0953-0.95709-3.699v-7.7085h-1.6296v-2.9747h1.6296v-2.7678l2.9747-1.6814v4.4492h2.7937v2.9747h-2.7937v6.622c0 0.67255 0.025867 1.1899 0.077602 1.6038 0.077602 0.38801 0.1552 0.69842 0.28454 0.90536 0.1552 0.20694 0.33628 0.38801 0.54321 0.46561 0.23281 0.077602 0.54321 0.10347 0.87949 0.10347 0.20694 0 0.43974-0.025867 0.67255-0.10347 0.25867-0.077602 0.49148-0.1552 0.77602-0.25867l-0.49148 3.1299m11.071-6.4151c0-0.18107-0.077602-0.36214-0.25867-0.54321-0.12934-0.18107-0.33628-0.33628-0.56908-0.46561-0.23281-0.1552-0.49148-0.25867-0.75015-0.33628-0.28454-0.077602-0.54321-0.10347-0.77602-0.10347-2.0435 0-3.0782 0.85362-3.0782 2.5609 0 0.72429 0.25867 1.3192 0.80189 1.7848 0.54321 0.43974 1.2158 0.64668 1.9659 0.64668 0.23281 0 0.49148-0.025867 0.77602-0.10347 0.31041-0.077602 0.62082-0.1552 0.87949-0.28454 0.28454-0.1552 0.51735-0.31041 0.72429-0.51735 0.18107-0.18107 0.28454-0.41388 0.28454-0.67255v-1.9659m0.051735 5.0959c-0.25867 0.36214-0.69842 0.72429-1.3192 1.0347-0.62082 0.31041-1.3968 0.46561-2.2763 0.46561-0.67255 0-1.3192-0.12934-1.9142-0.36214-0.59495-0.23281-1.1123-0.59495-1.552-1.0606-0.43974-0.46561-0.80189-1.0347-1.0606-1.7072-0.23281-0.67255-0.36214-1.4227-0.36214-2.2763 0-1.7331 0.49148-3.0523 1.4744-3.9836 1.0347-0.90536 2.3281-1.371 3.9577-1.371 0.75015 0 1.371 0.10347 1.8366 0.33628 0.51735 0.18107 0.90536 0.43974 1.164 0.75015 0-0.64668-0.077602-1.164-0.20694-1.552-0.12934-0.41388-0.31041-0.72429-0.54321-0.95709-0.25867-0.20694-0.56908-0.36214-0.95709-0.41388-0.36214-0.10347-0.77602-0.1552-1.2158-0.1552-0.56908 0-1.0347 0.10347-1.4486 0.28454-0.38801 0.18107-0.75015 0.38801-1.0606 0.64668l-1.3451-2.2763c0.49148-0.51735 1.0864-0.93122 1.8107-1.2158 0.72429-0.31041 1.552-0.43974 2.4315-0.43974 1.6814 0 3.0006 0.49148 4.0353 1.5262 1.0088 0.98296 1.5003 2.3539 1.5003 4.087v9.9848h-2.9489v-1.3451m6.2082-17.435 2.9747-1.8883v20.668h-2.9747v-18.78m11.149 11.356-1.6814 2.0694v5.3545h-2.9747v-18.909l2.9747-1.759v11.071l4.1646-5.1735h3.8025l-4.1905 5.0959 4.7855 9.6744h-3.4145l-3.4662-7.4239"/>
 <path d="m510.94 592c-0.45278 0.10654-0.82566 0.1598-1.1186 0.18644-0.29298 0.053268-0.58595 0.079902-0.93219 0.079902-1.1719 0-2.0775-0.45278-2.7167-1.3051-0.63922-0.87893-0.93219-2.1041-0.93219-3.7021v-7.6973h-1.6513v-2.983h1.6513v-2.7966l2.9564-1.6513v4.4479h2.7966v2.983h-2.7966v6.6053c0 0.66585 0.026634 1.1985 0.079902 1.598 0.079902 0.39951 0.1598 0.69249 0.29298 0.90556 0.13317 0.21307 0.31961 0.37288 0.53268 0.47941 0.23971 0.079902 0.53268 0.10654 0.87893 0.10654 0.21307 0 0.42615-0.026634 0.69249-0.10654 0.23971-0.079902 0.47941-0.1598 0.74576-0.26634l-0.47941 3.1162m11.08-6.3922c0-0.21307-0.079902-0.37288-0.26634-0.55932-0.13317-0.18644-0.31961-0.34624-0.58595-0.45278-0.23971-0.1598-0.47941-0.26634-0.74576-0.34624-0.26634-0.053268-0.53268-0.10654-0.77239-0.10654-2.0508 0-3.0629 0.85229-3.0629 2.5835 0 0.71912 0.26634 1.3051 0.79902 1.7579 0.55932 0.45278 1.1985 0.66585 1.9443 0.66585 0.23971 0 0.50605-0.026634 0.79902-0.10654 0.31961-0.079902 0.61259-0.18644 0.87893-0.29298 0.29298-0.1598 0.53268-0.31961 0.71912-0.50605s0.29298-0.42615 0.29298-0.69249v-1.9443m0.026634 5.0871c-0.23971 0.37288-0.66585 0.71912-1.3051 1.0121-0.61259 0.31961-1.385 0.47941-2.2905 0.47941-0.66585 0-1.3051-0.10654-1.9177-0.37288-0.55932-0.23971-1.092-0.58595-1.5448-1.0387-0.42615-0.47941-0.79902-1.0387-1.0387-1.7046-0.26634-0.66585-0.37288-1.4382-0.37288-2.2905 0-1.7312 0.50605-3.0629 1.4915-3.9685 1.0121-0.93219 2.3172-1.385 3.9419-1.385 0.74576 0 1.3583 0.10654 1.8378 0.34624 0.50605 0.18644 0.90556 0.42615 1.1719 0.74576 0-0.63922-0.079902-1.1719-0.21307-1.5448-0.13317-0.42615-0.31961-0.74576-0.55932-0.95883s-0.55932-0.34624-0.93219-0.42615c-0.37288-0.10654-0.77239-0.1598-1.2252-0.1598-0.55932 0-1.0387 0.10654-1.4649 0.29298-0.37288 0.18644-0.71912 0.39951-1.0387 0.66585l-1.3583-2.2905c0.50605-0.53268 1.092-0.93219 1.8111-1.2252 0.74576-0.29298 1.5448-0.42615 2.4503-0.42615 1.6513 0 2.983 0.50605 3.9951 1.5181 1.0387 0.98546 1.5448 2.3438 1.5448 4.075v10.014h-2.983v-1.3583m6.2058-17.445 2.983-1.891v20.695h-2.983v-18.804m11.16 11.373-1.678 2.0508v5.3801h-2.9564v-18.91l2.9564-1.7845v11.08l4.1816-5.167h3.782l-4.1816 5.1138 4.7675 9.6682h-3.4092l-3.4624-7.4309" fill="#019c1c"/>
 <path d="m607.38 294.95c0 32.741-37.314 59.293-83.365 59.293-46.05 0-83.362-26.552-83.352-59.293-0.010654-32.741 37.301-59.288 83.352-59.288 46.05 0 83.365 26.546 83.365 59.288z" fill="url(#cm)"/>
 <path d="m526.36 239.24c-22.106 0-42.109 6.7651-56.384 17.397-7.1433 5.3135-12.811 11.615-16.633 18.34-3.822 6.7251-5.7823 13.714-5.7823 20.902 0 7.1886 1.9603 14.177 5.7823 20.902 3.822 6.7251 9.4897 13.027 16.633 18.335 14.276 10.627 34.278 17.392 56.384 17.392 22.08 0 42.082-6.7651 56.358-17.392 7.1379-5.3082 12.811-11.61 16.646-18.335 3.8087-6.7251 5.7796-13.714 5.7796-20.902 0-7.1886-1.9709-14.177-5.7796-20.902-3.8353-6.7251-9.5084-13.027-16.646-18.34-14.276-10.632-34.278-17.397-56.358-17.397z" fill="url(#ce)"/>
 <path d="m443.43 371.45c70.596 9.3752 85.618 10.734 160.38 0 12.864-1.8378 17.072 8.15 18.111 20.695 2.0508 17.632 8.9224 73.563-11.639 108.67-23.198 40.218-142.81 48.421-172.67-5.8329-14.319-32.68-11.077-69.515-9.7002-101.21 2.4796-14.649 4.6636-23.758 15.52-22.319z" fill="url(#cl)"/>
 <path d="m450.54 401.2c51.311-3.4358 101.76-3.4358 151.32 0 2.8765 26.155 3.9951 51.883 0 76.307-50.445 4.4479-100.89 4.2082-151.32 0-2.991-27.407-2.1547-52.283 0-76.307z" fill="#89a02c"/>
 <path d="m450.54 401.2c51.311-3.4358 101.76-3.4358 151.32 0 2.8765 26.155 3.9951 51.883 0 76.307-50.445 4.4479-100.89 4.2082-151.32 0-2.991-27.407-2.1547-52.283 0-76.307z" fill="url(#cd)"/>
 <path d="m453.13 474.29c-0.41388-23.074-1.5779-46.484 1.2934-67.902 48.734-4.5785 97.442-4.0612 146.15 0v-4.5268c-48.708-3.6732-99.15-3.8801-151.32-0.64668v69.195z" fill="#445016" fill-rule="evenodd"/>
 <path d="m462.14 438.11v-20.668h-5.8835v-2.7433h14.145v2.7433h-5.8995v20.668h-2.3624m10.739 0v-23.411h2.3704v9.6149h9.2687v-9.6149h2.3704v23.411h-2.3704v-11.053h-9.2687v11.053h-2.3704m18.031 0v-23.411h12.918v2.7433h-10.547v7.1912h9.8813v2.7433h-9.8813v7.9636h10.973v2.77h-13.344m32.946 0v-23.411h6.6852c1.3583 0 2.4503 0.21307 3.3026 0.69249 0.82566 0.47941 1.4649 1.2252 1.9443 2.2106 0.45278 0.98546 0.69249 1.9976 0.69249 3.0629 0 0.98546-0.21307 1.9177-0.61259 2.7966-0.42615 0.90556-1.0387 1.6247-1.891 2.184 1.0654 0.42615 1.891 1.1186 2.477 2.1041 0.58595 1.0121 0.87893 2.184 0.87893 3.5423v0.026634c0 1.092-0.1598 2.1041-0.50605 3.0097l-0.026634 0.053268c-0.34624 0.93219-0.77239 1.6513-1.3051 2.1574-0.50605 0.53268-1.1719 0.93219-1.9443 1.1985-0.79902 0.23971-1.7579 0.37288-2.9031 0.37288h-6.7917m2.3704-13.583h3.8619c1.0387 0 1.7845-0.079902 2.2373-0.26634 0.61259-0.23971 1.0654-0.61259 1.3583-1.1719 0.13317-0.26634 0.26634-0.58595 0.34624-0.93219 0.079902-0.34624 0.10654-0.69249 0.10654-1.0387v-0.079902c0-0.77239-0.13317-1.4382-0.39951-2.0242l-0.026634-0.026634c-0.26634-0.55932-0.66585-0.98546-1.1985-1.1985-0.53268-0.21307-1.4382-0.34624-2.7167-0.34624h-3.569v7.0847m0 10.813h4.4213c0.77239 0 1.3051-0.026634 1.598-0.10654h0.026634c0.53268-0.13317 0.98546-0.34624 1.3583-0.61259 0.34624-0.29298 0.66585-0.74576 0.87893-1.3317 0.26634-0.58595 0.37288-1.2252 0.37288-1.9443v-0.026634c0-0.85229-0.1598-1.598-0.50605-2.2639-0.34624-0.63922-0.82566-1.092-1.4382-1.3583-0.61259-0.26634-1.4915-0.39951-2.5835-0.39951h-4.1283v8.0435m13.663-8.6295c0-3.8886 0.79902-6.9515 2.3704-9.1355 1.598-2.2106 3.6489-3.3026 6.1791-3.3026 1.6513 0 3.1428 0.50605 4.4479 1.5448 1.3051 1.0121 2.3172 2.4503 3.0097 4.3147 0.71912 1.8644 1.0654 3.9419 1.0654 6.2058v0.079902c0 2.3704-0.37288 4.5012-1.092 6.3656-0.71912 1.891-1.7579 3.3026-3.1162 4.2615-1.3317 0.98546-2.77 1.4649-4.3147 1.4649-1.678 0-3.1961-0.53268-4.5012-1.5714-1.3051-1.0654-2.3172-2.5302-3.0097-4.3946-0.69249-1.8378-1.0387-3.782-1.0387-5.8329m2.4503 0.026634c0 2.8232 0.55932 5.0339 1.7046 6.6852 1.1719 1.6247 2.6368 2.4237 4.368 2.4237 1.7845 0 3.2494-0.79902 4.3946-2.4503 1.1453-1.6513 1.7312-3.9685 1.7312-6.9515v-0.026634c0-1.9177-0.26634-3.5956-0.74576-5.0072-0.47941-1.4116-1.1985-2.5302-2.1574-3.3026-0.93219-0.77239-1.9976-1.1719-3.1695-1.1719-1.678 0-3.1162 0.77239-4.3147 2.2639-1.2252 1.5181-1.8111 3.9951-1.8111 7.4576v0.079902m16.859 3.8353 2.2373-0.23971c0.079902 1.1453 0.31961 2.1041 0.71912 2.8499 0.39951 0.77239 0.98546 1.385 1.7845 1.8378l0.026634 0.026634c0.39951 0.21307 0.82566 0.39951 1.2518 0.50605h0.026634c0.45278 0.10654 0.93219 0.18644 1.4382 0.18644h0.026634c0.87893 0 1.678-0.18644 2.3704-0.53268 0.66585-0.34624 1.1985-0.82566 1.5181-1.4382h0.026634c0.34624-0.61259 0.50605-1.2784 0.50605-2.0242 0-0.74576-0.1598-1.385-0.47941-1.9177-0.31961-0.53268-0.85229-1.0121-1.6247-1.385-0.39951-0.21307-1.4649-0.58595-3.1428-1.1186-1.6513-0.53268-2.8232-1.0387-3.4624-1.4915-0.85229-0.55932-1.4915-1.3051-1.9177-2.1574-0.42615-0.87893-0.63922-1.8111-0.63922-2.8499v-0.079902c0-1.1985 0.26634-2.2905 0.77239-3.3026 0.50605-1.0387 1.2784-1.8111 2.2373-2.3438 0.98546-0.53268 2.0775-0.79902 3.276-0.79902 1.3317 0 2.5036 0.26634 3.5157 0.82566s1.7845 1.385 2.3172 2.477c0.29298 0.55932 0.50605 1.1186 0.66585 1.7312v0.053268c0.1598 0.58595 0.21307 1.1985 0.21307 1.8111v0.079902l-2.2639 0.23971c-0.10654-1.4915-0.53268-2.5835-1.2252-3.3559-0.69249-0.74576-1.7312-1.1453-3.1162-1.1453-1.4382 0-2.477 0.34624-3.1162 1.0387-0.63922 0.66585-0.98546 1.4915-0.98546 2.4503v0.026634c0 0.79902 0.23971 1.4915 0.69249 2.0508 0.45278 0.55932 1.6513 1.1186 3.569 1.678 1.9177 0.58595 3.2227 1.0654 3.9419 1.5181 1.0387 0.61259 1.8111 1.4116 2.3172 2.3971 0.23971 0.45278 0.42615 0.98546 0.55932 1.5181 0.10654 0.58595 0.18644 1.1719 0.18644 1.7845v0.026634c0 1.2252-0.29298 2.3971-0.82566 3.5157-0.53268 1.0654-1.3051 1.9177-2.3438 2.5569-1.0121 0.61259-2.1574 0.93219-3.4358 0.93219-1.6247 0-2.983-0.29298-4.075-0.90556-1.0654-0.61259-1.9443-1.5448-2.5835-2.7966-0.29298-0.66585-0.55932-1.3317-0.71912-1.9976v-0.026634c-0.1598-0.69249-0.23971-1.4116-0.23971-2.1307v-0.079902m16.646 0 2.2373-0.23971c0.10654 1.1453 0.34624 2.1041 0.74576 2.8499 0.37288 0.77239 0.98546 1.385 1.7845 1.8378v0.026634c0.39951 0.21307 0.82566 0.39951 1.2784 0.50605 0.45278 0.10654 0.93219 0.18644 1.4649 0.18644 0.90556 0 1.678-0.18644 2.3704-0.53268 0.69249-0.34624 1.1985-0.82566 1.5448-1.4382 0.34624-0.61259 0.53268-1.2784 0.53268-2.0242 0-0.74576-0.18644-1.385-0.50605-1.9177-0.31961-0.53268-0.85229-1.0121-1.598-1.385-0.42615-0.21307-1.4649-0.58595-3.1428-1.1186-1.678-0.53268-2.8232-1.0387-3.4891-1.4915-0.85229-0.55932-1.4915-1.3051-1.891-2.1574-0.42615-0.87893-0.63922-1.8111-0.63922-2.8499v-0.079902c0-1.1985 0.26634-2.2905 0.77239-3.3026 0.50605-1.0387 1.2518-1.8111 2.2373-2.3438 0.98546-0.53268 2.0775-0.79902 3.276-0.79902 1.3317 0 2.5036 0.26634 3.5157 0.82566s1.7845 1.385 2.3172 2.477c0.26634 0.55932 0.47941 1.1186 0.63922 1.7312v0.053268c0.1598 0.58595 0.23971 1.1985 0.23971 1.8111v0.079902l-2.2639 0.23971c-0.13317-1.4915-0.53268-2.5835-1.2252-3.3559-0.71912-0.74576-1.7579-1.1453-3.1162-1.1453-1.4382 0-2.477 0.34624-3.1162 1.0387-0.66585 0.66585-0.98546 1.4915-0.98546 2.4503v0.026634c0 0.79902 0.21307 1.4915 0.66585 2.0508h0.026634c0.45278 0.55932 1.6247 1.1186 3.5423 1.678 1.9177 0.58595 3.2494 1.0654 3.9685 1.5181 1.0387 0.61259 1.8111 1.4116 2.2905 2.3971 0.23971 0.45278 0.42615 0.98546 0.55932 1.5181 0.13317 0.58595 0.18644 1.1719 0.18644 1.7845v0.026634c0 1.2252-0.26634 2.3971-0.79902 3.5157-0.53268 1.0654-1.3317 1.9177-2.3438 2.5569-1.0387 0.61259-2.184 0.93219-3.4624 0.93219-1.598 0-2.9564-0.29298-4.0484-0.90556-1.092-0.61259-1.9443-1.5448-2.5835-2.7966-0.31961-0.66585-0.55932-1.3317-0.71912-1.9976v-0.026634c-0.18644-0.69249-0.26634-1.4116-0.26634-2.1307v-0.079902" opacity=".9"/>
 <path d="m456.52 444.56h4.621v2.4503h-3.5423v5.2469c0.17046-0.1598 0.34092-0.26634 0.51138-0.31961 0.17046-0.079902 0.34358-0.10654 0.51404-0.10654 0.97215 0 1.7392 0.63922 2.3065 1.9443 0.56731 1.3317 0.85229 3.0896 0.85229 5.3268 0 2.3172-0.29031 4.1017-0.8736 5.3801s-1.4063 1.9177-2.4663 1.9177c-0.36489 0-0.73777-0.079902-1.1186-0.23971-0.3782-0.1598-0.76706-0.37288-1.1719-0.69249v-2.9031c0.34891 0.45278 0.71113 0.82566 1.084 1.0387 0.37288 0.23971 0.76706 0.34624 1.1826 0.34624 0.67384 0 1.2065-0.42615 1.598-1.3051 0.39152-0.87893 0.58861-2.0508 0.58861-3.5423s-0.19709-2.6634-0.58861-3.5423c-0.39152-0.87893-0.9242-1.3051-1.598-1.3051-0.31428 0-0.62857 0.079902-0.94285 0.26634-0.31162 0.1598-0.63123 0.42615-0.95617 0.79902v-10.76m7.6014 0h4.629v2.4503h-3.553v5.2469c0.17312-0.1598 0.34358-0.26634 0.51404-0.31961 0.17046-0.079902 0.34092-0.10654 0.51404-0.10654 0.98014 0 1.7525 0.63922 2.3118 1.9443 0.55932 1.3317 0.85229 3.0896 0.85229 5.3268 0 2.3172-0.29298 4.1017-0.87893 5.3801s-1.4116 1.9177-2.4663 1.9177c-0.36489 0-0.73777-0.079902-1.1186-0.23971-0.3782-0.1598-0.76973-0.37288-1.1719-0.69249v-2.9031c0.34891 0.45278 0.71113 0.82566 1.084 1.0387 0.37288 0.23971 0.76706 0.34624 1.1826 0.34624 0.67118 0 1.2119-0.42615 1.5847-1.3051 0.39951-0.87893 0.61259-2.0508 0.61259-3.5423s-0.21307-2.6634-0.61259-3.5423c-0.37288-0.87893-0.91355-1.3051-1.5847-1.3051-0.31428 0-0.62857 0.079902-0.94551 0.26634-0.30896 0.1598-0.62857 0.42615-0.9535 0.79902v-10.76m7.612 0h4.6077v2.4503h-3.5423v5.2469c0.1598-0.1598 0.34624-0.26634 0.50605-0.31961 0.18644-0.079902 0.34624-0.10654 0.53268-0.10654 0.95883 0 1.7312 0.63922 2.2905 1.9443 0.58595 1.3317 0.85229 3.0896 0.85229 5.3268 0 2.3172-0.29298 4.1017-0.87893 5.3801s-1.385 1.9177-2.4503 1.9177c-0.37288 0-0.74576-0.079902-1.1186-0.23971-0.37288-0.1598-0.77239-0.37288-1.1719-0.69249v-2.9031c0.34624 0.45278 0.69249 0.82566 1.0654 1.0387 0.37288 0.23971 0.77239 0.34624 1.1985 0.34624 0.66585 0 1.1985-0.42615 1.598-1.3051 0.39951-0.87893 0.58595-2.0508 0.58595-3.5423s-0.18644-2.6634-0.58595-3.5423c-0.39951-0.87893-0.93219-1.3051-1.598-1.3051-0.31961 0-0.63922 0.079902-0.95883 0.26634-0.29298 0.1598-0.61259 0.42615-0.93219 0.79902v-10.76m6.8716 12.198h3.1428v2.3438h-3.1428v-2.3438m5.2203 6.7917h1.9177v-16.353l-2.0775 1.0387v-2.6368l2.0775-1.0387h1.1719v18.99h1.9177v2.4237h-5.0072v-2.4237m8.4164 0h4.1017v2.4237h-5.5133v-2.4237c0.42615-1.1453 1.0387-2.6634 1.8111-4.5811 0.77239-1.9177 1.2518-3.1695 1.4649-3.7288 0.37288-1.0387 0.63922-1.9177 0.77239-2.6368 0.1598-0.71912 0.23971-1.4382 0.23971-2.1307 0-1.1453-0.1598-2.0775-0.47941-2.7966-0.34624-0.69249-0.74576-1.0654-1.2784-1.0654-0.37288 0-0.74576 0.1598-1.1719 0.47941-0.39951 0.31961-0.85229 0.79902-1.3051 1.4382v-2.9298c0.47941-0.47941 0.90556-0.82566 1.3317-1.0654 0.39951-0.23971 0.77239-0.34624 1.1186-0.34624 0.90556 0 1.6247 0.53268 2.1574 1.6513 0.53268 1.1186 0.79902 2.5835 0.79902 4.4479 0 0.87893-0.053268 1.7046-0.18644 2.5036-0.13317 0.79902-0.37288 1.7046-0.74576 2.7966-0.079902 0.26634-0.39951 1.0654-0.90556 2.3971-0.53268 1.3317-1.2784 3.1695-2.2106 5.5665m10.148-9.1089c0.55932 0.29298 1.0121 0.90556 1.3317 1.8378 0.31961 0.93219 0.47941 2.1041 0.47941 3.4624 0 2.1307-0.31961 3.7554-0.90556 4.9273-0.58595 1.1453-1.4116 1.7312-2.5036 1.7312-0.37288 0-0.74576-0.10654-1.1453-0.29298-0.37288-0.1598-0.77239-0.42615-1.1985-0.77239v-2.7966c0.34624 0.45278 0.69249 0.82566 1.092 1.0654 0.37288 0.23971 0.77239 0.34624 1.1985 0.34624 0.74576 0 1.3051-0.34624 1.7046-1.0654 0.37288-0.71912 0.58595-1.7579 0.58595-3.1428 0-1.2518-0.18644-2.2373-0.55932-2.9564-0.34624-0.71912-0.85229-1.0654-1.4915-1.0654h-1.0121v-2.3704h1.0654c0.55932 0 1.0121-0.29298 1.3317-0.85229 0.29298-0.58595 0.45278-1.4116 0.45278-2.477 0-1.092-0.1598-1.9443-0.47941-2.5302-0.31961-0.58595-0.77239-0.87893-1.3583-0.87893-0.31961 0-0.66585 0.079902-1.0387 0.26634-0.37288 0.1598-0.77239 0.42615-1.2252 0.79902v-2.5835c0.45278-0.31961 0.87893-0.53268 1.2518-0.69249 0.39951-0.1598 0.77239-0.21307 1.1186-0.21307 0.87893 0 1.598 0.47941 2.1307 1.4915 0.50605 0.98546 0.77239 2.3438 0.77239 4.0484 0 1.1719-0.13317 2.184-0.42615 3.0097-0.26634 0.82566-0.66585 1.385-1.1719 1.7046m7.2711-7.351-2.983 11.426h2.983v-11.426m-0.31961-2.5302h1.4915v13.956h1.2518v2.4237h-1.2518v5.0339h-1.1719v-5.0339h-3.9152v-2.8232l3.5956-13.557" opacity=".9"/>
 <path d="m582.05 585.68c1.2675 46.665 39.086 33.99 43.328 2.5867 1.164-18.236-8.2775-31.351-25.867-34.274-14.874 2.7937-16.969 18.03-17.46 31.687z" fill="#fff" fill-rule="evenodd"/>
 <path d="m580.53 582.92c1.2784 46.663 39.072 34.012 43.334 2.5835 1.1453-18.218-8.3099-31.322-25.888-34.278-14.862 2.8232-16.966 18.058-17.445 31.695z" fill-rule="evenodd"/>
 <path d="m590.17 579.67c-0.61259 0-1.1186 0.37288-1.4915 1.1453-0.39951 0.74576-0.58595 1.678-0.63922 2.7966h4.1283c-0.053268-1.1186-0.23971-2.0508-0.58595-2.7966-0.37288-0.77239-0.82566-1.1453-1.4116-1.1453m-2.1307 6.8982c0 0.50605 0.079902 0.98546 0.18644 1.385 0.1598 0.37288 0.31961 0.71912 0.53268 1.0121 0.21307 0.26634 0.42615 0.47941 0.69249 0.61259 0.26634 0.13317 0.50605 0.18644 0.77239 0.18644 0.34624 0 0.63922-0.079902 0.87893-0.21307 0.26634-0.1598 0.50605-0.39951 0.69249-0.77239l1.2518 1.8644c-0.34624 0.77239-0.79902 1.3051-1.2784 1.6513-0.47941 0.34624-1.0121 0.50605-1.598 0.50605-1.3583 0-2.3971-0.66585-3.0629-2.0242-0.66585-1.3583-1.0121-3.276-1.0121-5.753 0-1.2518 0.10654-2.3971 0.29298-3.4092 0.18644-1.0387 0.45278-1.9177 0.79902-2.6368 0.37288-0.71912 0.79902-1.2784 1.3051-1.678 0.50605-0.37288 1.092-0.58595 1.7046-0.58595 1.1719 0 2.1041 0.66585 2.8232 1.9976 0.69249 1.3317 1.0654 3.3026 1.0654 5.9394v1.1186c0 0.1598 0 0.29298-0.026634 0.45278 0 0.10654 0 0.23971-0.026634 0.34624h-5.9927m13.264-3.5423c0-1.0121-0.1598-1.7845-0.45278-2.2905-0.29298-0.53268-0.69249-0.79902-1.2252-0.79902-0.53268 0-0.95883 0.26634-1.3051 0.79902-0.34624 0.50605-0.53268 1.2784-0.53268 2.2905v9.5883h-1.891v-15.448h1.891v1.9177c0.23971-0.69249 0.55932-1.2252 0.98546-1.5714 0.42615-0.31961 0.93219-0.50605 1.5181-0.50605 0.87893 0 1.5714 0.50605 2.1041 1.4915 0.53268 0.95883 0.79902 2.2905 0.79902 3.9419v10.174h-1.891v-9.5883m9.4018-0.10654c-0.10654-0.58595-0.31961-1.1453-0.66585-1.678-0.31961-0.53268-0.71912-0.82566-1.1985-0.82566-0.77239 0-1.3583 0.42615-1.678 1.2252-0.34624 0.82566-0.50605 2.0508-0.50605 3.6755 0 1.3051 0.18644 2.3704 0.53268 3.1695 0.37288 0.82566 0.90556 1.2518 1.598 1.2518 0.42615 0 0.82566-0.21307 1.1985-0.58595 0.37288-0.42615 0.61259-1.0387 0.71912-1.8378v-4.3946m0 8.0701c-0.13317 0.37288-0.37288 0.77239-0.69249 1.1985-0.31961 0.39951-0.79902 0.61259-1.4382 0.61259-0.55932 0-1.0654-0.18644-1.5448-0.58595-0.45278-0.37288-0.85229-0.90556-1.1985-1.5714-0.31961-0.69249-0.58595-1.4915-0.79902-2.3971-0.18644-0.93219-0.26634-1.9443-0.26634-3.0097 0-1.1453 0.079902-2.184 0.26634-3.1961 0.18644-1.0121 0.45278-1.8644 0.77239-2.6101 0.34624-0.74576 0.74576-1.3051 1.1985-1.7312 0.42615-0.42615 0.93219-0.63922 1.4649-0.63922 1.1719 0 1.9177 0.47941 2.2373 1.4382v-5.0605l1.891-1.3051v20.455h-1.891v-1.598" fill="#fff"/>
 <path d="m616.74 564.79c1.929 13.407 2.6164 24.964 0 38.8 5.5432-18.822 4.7894-30.974 0-38.8z" fill="#fff" fill-rule="evenodd"/>
 <path d="m588.29 566.12 10.994-7.1135-6.4668-2.5867-2.5867 5.8202z" fill="#fff" fill-rule="evenodd"/>
 <path d="m432.77 565.96c-0.98296-19.892 40.224-17.59 40.224 2.7419 0 13.632-39.37 14.693-40.224-2.7419z" fill="#f9f9f9" fill-rule="evenodd"/>
 <path d="m431.84 564.15c-0.97481-19.896 40.236-17.605 40.236 2.7433 0 13.637-39.381 14.675-40.236-2.7433z" fill-rule="evenodd"/>
 <path d="m441.9 567.79 9.1435-10.973 10.518 10.76" fill="none"/>
 <path d="m436.42 560.48c7.4239-10.114 17.693-6.053 27.445-4.5785-9.157-1.0864-18.288-1.552-27.445 4.5785z" fill="#fff" fill-rule="evenodd"/>
 <path d="m433.68 606.21c-0.98296 19.892 40.25 17.59 40.25-2.7419 0-13.632-39.396-14.667-40.25 2.7419z" fill="#fff" fill-rule="evenodd"/>
 <path d="m431.84 603.64c-0.97481 19.896 40.236 17.579 40.236-2.7433 0-13.637-39.381-14.702-40.236 2.7433z" fill-rule="evenodd"/>
 <path d="m461.56 599.36-9.1462 10.973-10.515-10.76" fill="none"/>
 <path d="m436.42 600.26c7.4239-10.114 17.693-6.053 27.445-4.5785-9.157-1.0864-18.288-1.552-27.445 4.5785z" fill="#fff" fill-rule="evenodd"/>
 <path d="m456.36 631.01c-6.9583 0-13.761 1.3192-19.168 4.7079-5.3804 3.3628-9.2605 9.6744-8.1482 16.814 5.6649 36.447 63.737 26.074 59.572-1.4744-1.0864-7.1135-6.1306-12.365-12.132-15.52-6.0012-3.1558-13.166-4.5009-20.125-4.5268z" fill="#333" fill-rule="evenodd"/>
 <path d="m433.67 651.78c4.9148 31.713 53.338 20.047 50.286 0-3.2334-21.444-53.649-21.547-50.286 0z" fill="#666" fill-rule="evenodd"/>
 <path d="m433.67 651.78c4.9148 31.713 53.338 20.047 50.286 0-3.2334-21.444-53.649-21.547-50.286 0z" fill="url(#dl)" fill-rule="evenodd"/>
 <path d="m433.67 651.78c4.9148 31.713 53.338 20.047 50.286 0-3.2334-21.444-53.649-21.547-50.286 0z" fill="url(#dm)" fill-rule="evenodd"/>
 <path d="m522.21 631.01c-6.9583 0-13.761 1.3192-19.168 4.7079-5.3804 3.3628-9.2605 9.6744-8.1482 16.814 5.6649 36.447 63.737 26.074 59.572-1.4744-1.0864-7.1135-6.1306-12.365-12.132-15.52-6.0012-3.1558-13.166-4.5009-20.125-4.5268z" fill="#333" fill-rule="evenodd"/>
 <path d="m499.52 651.78c4.9148 31.713 53.338 20.047 50.286 0-3.2334-21.444-53.649-21.547-50.286 0z" fill="#666" fill-rule="evenodd"/>
 <path d="m499.52 651.78c4.9148 31.713 53.338 20.047 50.286 0-3.2334-21.444-53.649-21.547-50.286 0z" fill="url(#dn)" fill-rule="evenodd"/>
 <path d="m499.52 651.78c4.9148 31.713 53.338 20.047 50.286 0-3.2334-21.444-53.649-21.547-50.286 0z" fill="url(#do)" fill-rule="evenodd"/>
 <path d="m591.72 631.01c-6.9583 0-13.761 1.3192-19.168 4.7079-5.3804 3.3628-9.2605 9.6744-8.1482 16.814 5.6649 36.447 63.737 26.074 59.572-1.4744-1.0864-7.1135-6.1306-12.365-12.132-15.52-6.0012-3.1558-13.166-4.5009-20.125-4.5268z" fill="#333" fill-rule="evenodd"/>
 <path d="m569.03 651.78c4.9148 31.713 53.338 20.047 50.286 0-3.2334-21.444-53.649-21.547-50.286 0z" fill="#666" fill-rule="evenodd"/>
 <path d="m569.03 651.78c4.9148 31.713 53.338 20.047 50.286 0-3.2334-21.444-53.649-21.547-50.286 0z" fill="url(#dp)" fill-rule="evenodd"/>
 <path d="m569.03 651.78c4.9148 31.713 53.338 20.047 50.286 0-3.2334-21.444-53.649-21.547-50.286 0z" fill="url(#dq)" fill-rule="evenodd"/>
 <path d="m456.36 682.38c-6.9583 0-13.761 1.3192-19.168 4.7079-5.3804 3.3628-9.2605 9.6744-8.1482 16.814 5.6649 36.447 63.737 26.074 59.572-1.4744-1.0864-7.1135-6.1306-12.365-12.132-15.52-6.0012-3.1558-13.166-4.5009-20.125-4.5268z" fill="#333" fill-rule="evenodd"/>
 <path d="m433.67 703.15c4.9148 31.713 53.338 20.047 50.286 0-3.2334-21.444-53.649-21.547-50.286 0z" fill="#666" fill-rule="evenodd"/>
 <path d="m433.67 703.15c4.9148 31.713 53.338 20.047 50.286 0-3.2334-21.444-53.649-21.547-50.286 0z" fill="url(#dr)" fill-rule="evenodd"/>
 <path d="m433.67 703.15c4.9148 31.713 53.338 20.047 50.286 0-3.2334-21.444-53.649-21.547-50.286 0z" fill="url(#ds)" fill-rule="evenodd"/>
 <path d="m522.21 682.38c-6.9583 0-13.761 1.3192-19.168 4.7079-5.3804 3.3628-9.2605 9.6744-8.1482 16.814 5.6649 36.447 63.737 26.074 59.572-1.4744-1.0864-7.1135-6.1306-12.365-12.132-15.52-6.0012-3.1558-13.166-4.5009-20.125-4.5268z" fill="#333" fill-rule="evenodd"/>
 <path d="m499.52 703.15c4.9148 31.713 53.338 20.047 50.286 0-3.2334-21.444-53.649-21.547-50.286 0z" fill="#666" fill-rule="evenodd"/>
 <path d="m499.52 703.15c4.9148 31.713 53.338 20.047 50.286 0-3.2334-21.444-53.649-21.547-50.286 0z" fill="url(#dt)" fill-rule="evenodd"/>
 <path d="m499.52 703.15c4.9148 31.713 53.338 20.047 50.286 0-3.2334-21.444-53.649-21.547-50.286 0z" fill="url(#bq)" fill-rule="evenodd"/>
 <path d="m591.72 682.38c-6.9583 0-13.761 1.3192-19.168 4.7079-5.3804 3.3628-9.2605 9.6744-8.1482 16.814 5.6649 36.447 63.737 26.074 59.572-1.4744-1.0864-7.1135-6.1306-12.365-12.132-15.52-6.0012-3.1558-13.166-4.5009-20.125-4.5268z" fill="#333" fill-rule="evenodd"/>
 <path d="m569.03 703.15c4.9148 31.713 53.338 20.047 50.286 0-3.2334-21.444-53.649-21.547-50.286 0z" fill="#666" fill-rule="evenodd"/>
 <path d="m569.03 703.15c4.9148 31.713 53.338 20.047 50.286 0-3.2334-21.444-53.649-21.547-50.286 0z" fill="url(#br)" fill-rule="evenodd"/>
 <path d="m569.03 703.15c4.9148 31.713 53.338 20.047 50.286 0-3.2334-21.444-53.649-21.547-50.286 0z" fill="url(#bs)" fill-rule="evenodd"/>
 <path d="m456.36 736.34c-6.9583 0-13.761 1.3192-19.168 4.7079-5.3804 3.3628-9.2605 9.6744-8.1482 16.814 5.6649 36.447 63.737 26.074 59.572-1.4744-1.0864-7.1135-6.1306-12.365-12.132-15.52-6.0012-3.1558-13.166-4.5009-20.125-4.5268z" fill="#333" fill-rule="evenodd"/>
 <path d="m433.67 757.11c4.9148 31.713 53.338 20.047 50.286 0-3.2334-21.444-53.649-21.547-50.286 0z" fill="#666" fill-rule="evenodd"/>
 <path d="m433.67 757.11c4.9148 31.713 53.338 20.047 50.286 0-3.2334-21.444-53.649-21.547-50.286 0z" fill="url(#bt)" fill-rule="evenodd"/>
 <path d="m433.67 757.11c4.9148 31.713 53.338 20.047 50.286 0-3.2334-21.444-53.649-21.547-50.286 0z" fill="url(#bu)" fill-rule="evenodd"/>
 <path d="m522.21 736.34c-6.9583 0-13.761 1.3192-19.168 4.7079-5.3804 3.3628-9.2605 9.6744-8.1482 16.814 5.6649 36.447 63.737 26.074 59.572-1.4744-1.0864-7.1135-6.1306-12.365-12.132-15.52-6.0012-3.1558-13.166-4.5009-20.125-4.5268z" fill="#333" fill-rule="evenodd"/>
 <path d="m499.52 757.11c4.9148 31.713 53.338 20.047 50.286 0-3.2334-21.444-53.649-21.547-50.286 0z" fill="#666" fill-rule="evenodd"/>
 <path d="m499.52 757.11c4.9148 31.713 53.338 20.047 50.286 0-3.2334-21.444-53.649-21.547-50.286 0z" fill="url(#bv)" fill-rule="evenodd"/>
 <path d="m499.52 757.11c4.9148 31.713 53.338 20.047 50.286 0-3.2334-21.444-53.649-21.547-50.286 0z" fill="url(#bw)" fill-rule="evenodd"/>
 <path d="m591.72 736.34c-6.9583 0-13.761 1.3192-19.168 4.7079-5.3804 3.3628-9.2605 9.6744-8.1482 16.814 5.6649 36.447 63.737 26.074 59.572-1.4744-1.0864-7.1135-6.1306-12.365-12.132-15.52-6.0012-3.1558-13.166-4.5009-20.125-4.5268z" fill="#333" fill-rule="evenodd"/>
 <path d="m569.03 757.11c4.9148 31.713 53.338 20.047 50.286 0-3.2334-21.444-53.649-21.547-50.286 0z" fill="#666" fill-rule="evenodd"/>
 <path d="m569.03 757.11c4.9148 31.713 53.338 20.047 50.286 0-3.2334-21.444-53.649-21.547-50.286 0z" fill="url(#bx)" fill-rule="evenodd"/>
 <path d="m569.03 757.11c4.9148 31.713 53.338 20.047 50.286 0-3.2334-21.444-53.649-21.547-50.286 0z" fill="url(#by)" fill-rule="evenodd"/>
 <path d="m456.36 786.64c-6.9583 0-13.761 1.3192-19.168 4.7079-5.3804 3.3628-9.2605 9.6744-8.1482 16.814 5.6649 36.447 63.737 26.074 59.572-1.4744-1.0864-7.1135-6.1306-12.365-12.132-15.52-6.0012-3.1558-13.166-4.5009-20.125-4.5268z" fill="#333" fill-rule="evenodd"/>
 <path d="m433.67 807.41c4.9148 31.713 53.338 20.047 50.286 0-3.2334-21.444-53.649-21.547-50.286 0z" fill="#666" fill-rule="evenodd"/>
 <path d="m433.67 807.41c4.9148 31.713 53.338 20.047 50.286 0-3.2334-21.444-53.649-21.547-50.286 0z" fill="url(#bz)" fill-rule="evenodd"/>
 <path d="m433.67 807.41c4.9148 31.713 53.338 20.047 50.286 0-3.2334-21.444-53.649-21.547-50.286 0z" fill="url(#ca)" fill-rule="evenodd"/>
 <path d="m522.21 786.64c-6.9583 0-13.761 1.3192-19.168 4.7079-5.3804 3.3628-9.2605 9.6744-8.1482 16.814 5.6649 36.447 63.737 26.074 59.572-1.4744-1.0864-7.1135-6.1306-12.365-12.132-15.52-6.0012-3.1558-13.166-4.5009-20.125-4.5268z" fill="#333" fill-rule="evenodd"/>
 <path d="m499.52 807.41c4.9148 31.713 53.338 20.047 50.286 0-3.2334-21.444-53.649-21.547-50.286 0z" fill="#666" fill-rule="evenodd"/>
 <path d="m499.52 807.41c4.9148 31.713 53.338 20.047 50.286 0-3.2334-21.444-53.649-21.547-50.286 0z" fill="url(#cb)" fill-rule="evenodd"/>
 <path d="m499.52 807.41c4.9148 31.713 53.338 20.047 50.286 0-3.2334-21.444-53.649-21.547-50.286 0z" fill="url(#cc)" fill-rule="evenodd"/>
 <path d="m591.72 786.64c-6.9583 0-13.761 1.3192-19.168 4.7079-5.3804 3.3628-9.2605 9.6744-8.1482 16.814 5.6649 36.447 63.737 26.074 59.572-1.4744-1.0864-7.1135-6.1306-12.365-12.132-15.52-6.0012-3.1558-13.166-4.5009-20.125-4.5268z" fill="#333" fill-rule="evenodd"/>
 <path d="m569.03 807.41c4.9148 31.713 53.338 20.047 50.286 0-3.2334-21.444-53.649-21.547-50.286 0z" fill="#666" fill-rule="evenodd"/>
 <path d="m569.03 807.41c4.9148 31.713 53.338 20.047 50.286 0-3.2334-21.444-53.649-21.547-50.286 0z" fill="url(#dj)" fill-rule="evenodd"/>
 <path d="m569.03 807.41c4.9148 31.713 53.338 20.047 50.286 0-3.2334-21.444-53.649-21.547-50.286 0z" fill="url(#dk)" fill-rule="evenodd"/>
 <path d="m447.91 648.1h-1.8111v-2.7966c1.4489-0.026634 2.208-0.63922 2.2825-1.8378h2.4983v20.109h-2.9697v-15.474"/>
 <path d="m512.56 661.97c0-1.1985 0.10654-2.2373 0.29298-3.1162 0.18644-0.90556 0.47941-1.678 0.82566-2.3438 0.39951-0.69249 0.87893-1.2784 1.4649-1.7845 0.58595-0.50605 1.2518-0.98546 2.0242-1.4382 0.50605-0.29298 1.0121-0.53268 1.4915-0.74576 0.47941-0.21307 0.90556-0.45278 1.3051-0.71912 0.39951-0.29298 0.71912-0.63922 0.95883-1.0387 0.23971-0.45278 0.37288-1.0121 0.37288-1.7579 0-1.6513-0.90556-2.477-2.7167-2.477-0.82566 0-1.5448 0.13317-2.184 0.42615-0.58595 0.26634-1.1719 0.82566-1.7046 1.6513l-1.9709-2.5835c0.69249-0.93219 1.5181-1.598 2.477-2.0508 1.0121-0.42615 2.184-0.63922 3.569-0.63922 1.598 0 2.9031 0.47941 3.9419 1.4116 1.0654 0.93219 1.598 2.3172 1.598 4.1283 0 0.95883-0.13317 1.8111-0.39951 2.5036-0.23971 0.66585-0.58595 1.2784-1.0654 1.8111-0.45278 0.50605-0.98546 0.95883-1.5714 1.3317-0.61259 0.39951-1.2784 0.77239-1.9976 1.1186-1.0387 0.53268-1.8644 1.2252-2.4237 2.0775-0.58595 0.82566-0.87893 1.7579-0.87893 2.8499h8.3365v2.983h-11.746v-1.598"/>
 <path d="m587.32 663.68c-2.6368 0-4.4745-0.95883-5.5133-2.8765l2.5569-1.8111c0.50605 1.1186 1.5181 1.678 2.983 1.678 0.85229 0 1.5448-0.26634 2.1041-0.79902 0.55932-0.55932 0.85229-1.2784 0.85229-2.2106 0-1.2252-0.29298-2.1041-0.87893-2.6368-0.58595-0.53268-1.3317-0.79902-2.2373-0.79902h-1.1985v-2.983h1.1985c0.66585 0 1.1985-0.21307 1.6247-0.63922 0.42615-0.45278 0.63922-1.1453 0.63922-2.0242 0-0.71912-0.18644-1.2518-0.61259-1.678-0.39951-0.39951-0.93219-0.61259-1.598-0.61259-0.58595 0-1.0387 0.10654-1.3317 0.31961-0.26634 0.23971-0.53268 0.53268-0.79902 0.90556l-2.4503-1.0121c0.053268-0.34624 0.21307-0.71912 0.45278-1.092 0.26634-0.34624 0.61259-0.69249 1.0121-1.0121 0.42615-0.29298 0.87893-0.55932 1.4116-0.74576 0.55932-0.18644 1.1453-0.29298 1.7845-0.29298 1.385 0 2.5302 0.42615 3.4358 1.3051 0.95883 0.87893 1.4116 2.1041 1.4116 3.7021 0 0.95883-0.1598 1.8111-0.45278 2.5569-0.31961 0.71912-0.85229 1.2784-1.5714 1.6247 0.39951 0.1598 0.77239 0.37288 1.1186 0.66585 0.39951 0.29298 0.71912 0.63922 1.0121 1.092 0.31961 0.39951 0.55932 0.90556 0.74576 1.4649 0.18644 0.55932 0.26634 1.1719 0.26634 1.8644 0 1.8111-0.53268 3.276-1.5714 4.368-1.0387 1.092-2.5036 1.6513-4.3946 1.678"/>
 <path d="m448.93 708.48h5.215v-7.9636l-5.215 7.9636m8.1847 8.15h-2.9697v-5.167h-8.15v-3.4891l7.6067-11.453h3.513v11.959h2.1707v2.983h-2.1707v5.167"/>
 <path d="m518.18 716.84c-1.1719 0-2.2106-0.079902-3.1162-0.29298-0.90556-0.21307-1.7579-0.58595-2.5302-1.1186l1.6247-3.0363c0.69249 0.53268 1.385 0.90556 2.0242 1.1186 0.66585 0.18644 1.3051 0.29298 1.9177 0.29298 1.1719 0 2.1041-0.31961 2.8232-0.98546 0.74576-0.63922 1.1186-1.598 1.1186-2.8232 0-0.53268-0.079902-1.0121-0.26634-1.4915-0.18644-0.47941-0.42615-0.87893-0.74576-1.2252-0.29298-0.34624-0.66585-0.63922-1.0387-0.82566-0.39951-0.21307-0.79902-0.31961-1.2252-0.31961-0.53268 0-1.0654 0.10654-1.5714 0.31961-0.50605 0.21307-0.98546 0.58595-1.4382 1.092l-2.9298-1.2252c0.053268-0.77239 0.13317-1.4649 0.18644-2.1574 0.053268-0.69249 0.13317-1.4116 0.21307-2.1574 0.053268-0.74576 0.13317-1.5714 0.1598-2.4237 0.079902-0.90556 0.1598-1.9177 0.23971-3.0629h10.094v2.983h-7.5375l-0.39951 4.661c0.47941-0.39951 0.98546-0.69249 1.4915-0.82566 0.53268-0.1598 1.0654-0.23971 1.598-0.23971 1.891 0 3.3559 0.61259 4.4213 1.8378 1.0654 1.1985 1.6247 2.9031 1.6247 5.1138 0 1.1186-0.1598 2.1041-0.50605 2.9564-0.34624 0.85229-0.82566 1.5714-1.4116 2.1307-0.61259 0.55932-1.3317 0.98546-2.1307 1.2784-0.82566 0.29298-1.7312 0.42615-2.69 0.42615"/>
 <path d="m587.94 706.35c-0.95883 0-1.7312 0.34624-2.3172 1.0121-0.55932 0.66585-0.82566 1.598-0.82566 2.7433 0 1.1719 0.26634 2.0775 0.79902 2.7167 0.53268 0.66585 1.2518 0.98546 2.2106 0.98546 0.95883 0 1.7312-0.31961 2.3438-0.93219 0.63922-0.66585 0.93219-1.5714 0.93219-2.7167 0-1.1719-0.26634-2.0775-0.85229-2.77-0.58595-0.69249-1.3317-1.0387-2.2905-1.0387m-0.31961 10.414c-1.7579 0-3.1695-0.66585-4.2082-2.0508-1.0387-1.4116-1.5448-3.3559-1.5448-5.8329 0-1.6513 0.18644-3.1961 0.61259-4.661 0.39951-1.5181 0.98546-2.8232 1.7312-3.9685 0.74576-1.1186 1.6247-2.0242 2.6368-2.7167 1.0121-0.69249 2.1307-1.0654 3.3293-1.1186l0.47941 2.8232c-1.385 0.13317-2.6101 0.71912-3.7021 1.7845-1.0654 1.0654-1.7845 2.6101-2.1307 4.661 0.37288-0.61259 0.90556-1.1453 1.6247-1.5448 0.74576-0.39951 1.4116-0.61259 2.0775-0.61259 0.77239 0 1.4649 0.1598 2.1041 0.47941 0.63922 0.29298 1.1985 0.74576 1.6513 1.2784 0.47941 0.55932 0.85229 1.2518 1.092 2.0508 0.26634 0.79902 0.39951 1.6513 0.39951 2.5835 0 2.2905-0.55932 3.9951-1.6513 5.167-1.1186 1.1186-2.6101 1.678-4.5012 1.678"/>
 <path d="m449.22 769.63c0.098546-1.7312 0.29031-3.4092 0.58062-5.0339 0.29031-1.6513 0.66319-3.1961 1.1213-4.6876 0.48474-1.4649 1.052-2.8232 1.7019-4.075 0.67651-1.2784 1.4382-2.3704 2.2825-3.3026h-8.475v-2.983h11.988v3.4624c-0.86827 0.77239-1.678 1.7579-2.4264 2.9564-0.72445 1.1985-1.353 2.5569-1.883 4.0218-0.50605 1.4382-0.91621 3.0097-1.2305 4.661-0.29031 1.6513-0.44745 3.3026-0.47142 4.9806h-3.1881"/>
 <path d="m518.42 759.85c-1.0121 0-1.8111 0.29298-2.4237 0.90556-0.58595 0.58595-0.90556 1.5181-0.90556 2.77 0 1.1719 0.31961 2.0508 0.95883 2.6368 0.61259 0.61259 1.4116 0.90556 2.3704 0.90556 1.0387 0 1.8378-0.26634 2.4503-0.82566 0.61259-0.58595 0.93219-1.4915 0.93219-2.7167 0-2.4503-1.1186-3.6755-3.3825-3.6755m0-7.8304c-0.77239 0-1.3317 0.21307-1.7312 0.69249-0.34624 0.45278-0.53268 1.0654-0.53268 1.8378 0 0.77239 0.21307 1.385 0.61259 1.8111 0.39951 0.39951 0.95883 0.61259 1.6513 0.61259 0.71912 0 1.2518-0.21307 1.6513-0.69249 0.37288-0.45278 0.55932-1.0387 0.55932-1.7312 0-0.77239-0.1598-1.385-0.53268-1.8378-0.34624-0.47941-0.87893-0.69249-1.678-0.69249m-0.026634 17.712c-1.8111 0-3.276-0.55932-4.368-1.6247-1.092-1.092-1.6513-2.6101-1.6513-4.5811 0-0.63922 0.079902-1.2784 0.23971-1.8644 0.1598-0.61259 0.37288-1.1719 0.63922-1.6513 0.29298-0.47941 0.61259-0.87893 0.98546-1.2252 0.37288-0.34624 0.79902-0.55932 1.2252-0.69249-0.63922-0.47941-1.1186-1.0387-1.385-1.7046-0.23971-0.66585-0.34624-1.385-0.34624-2.1574 0-1.4649 0.39951-2.6368 1.2252-3.5157 0.82566-0.87893 1.9443-1.3051 3.4092-1.3051 1.5181 0 2.69 0.39951 3.5423 1.1985 0.87893 0.77239 1.3051 1.9976 1.3051 3.6489 0 0.77239-0.13317 1.5181-0.42615 2.2106-0.26634 0.66585-0.79902 1.2518-1.5714 1.7312 0.53268 0.13317 1.0121 0.37288 1.4116 0.69249 0.42615 0.34624 0.74576 0.74576 1.0121 1.2252 0.26634 0.50605 0.47941 1.0387 0.61259 1.6513 0.1598 0.55932 0.23971 1.1719 0.23971 1.7579 0 1.9709-0.55932 3.4891-1.678 4.5811-1.1186 1.0654-2.5835 1.6247-4.4213 1.6247"/>
 <path d="m587.59 759.91c0.95883 0 1.7046-0.31961 2.2639-1.0121 0.58595-0.66585 0.87893-1.598 0.87893-2.7433 0-1.1719-0.26634-2.0775-0.79902-2.7167-0.53268-0.66585-1.2784-1.0121-2.2106-1.0121s-1.7046 0.31961-2.3172 0.98546c-0.58595 0.63922-0.87893 1.5448-0.87893 2.69 0 1.1719 0.29298 2.1041 0.85229 2.7966 0.53268 0.69249 1.2784 1.0121 2.2106 1.0121m0.39951-10.494c1.8111 0 3.2227 0.71912 4.2348 2.1307 1.0121 1.4116 1.5181 3.3559 1.5181 5.8329 0 1.6513-0.21307 3.2227-0.66585 4.7142-0.39951 1.4649-0.98546 2.77-1.7312 3.9152-0.71912 1.1186-1.598 2.0508-2.6368 2.7433-1.0121 0.66585-2.1574 1.0387-3.3825 1.092l-0.34624-2.8232c0.63922-0.053268 1.2784-0.21307 1.9177-0.50605 0.61259-0.31961 1.1985-0.74576 1.7046-1.2784 0.53268-0.55932 0.95883-1.2252 1.3317-1.9976 0.37288-0.77239 0.61259-1.6513 0.74576-2.6634-0.29298 0.61259-0.82566 1.1453-1.5448 1.5448-0.69249 0.42615-1.4116 0.61259-2.1041 0.61259-0.79902 0-1.5181-0.1598-2.1574-0.45278-0.63922-0.31961-1.1985-0.74576-1.678-1.3051-0.45278-0.55932-0.82566-1.2518-1.092-2.0242-0.23971-0.79902-0.34624-1.678-0.34624-2.6101 0-2.2905 0.53268-3.9951 1.6247-5.1404 1.1186-1.1985 2.6368-1.7845 4.6077-1.7845"/>
 <path d="m454.33 808.75v6.1791h-1.5954v-6.0459l-4.4905 3.6222-0.94018-1.6247 4.9619-3.4358-4.9273-3.4891 0.90556-1.6513 4.3813 3.6489v-6.0459h1.63v6.0459l4.5651-3.6222 0.94018 1.6247-4.9966 3.4624 5.0339 3.4624-0.97747 1.6247-4.4905-3.7554"/>
 <path d="m519.81 804.12c-1.5181 0-2.6368 0.61259-3.3293 1.8111-0.69249 1.1719-1.0387 2.983-1.0387 5.3801 0 2.5036 0.34624 4.3147 1.0654 5.4866 0.77239 1.1186 1.8644 1.7046 3.3026 1.7046 1.4649 0 2.5302-0.58595 3.276-1.7046 0.74576-1.1719 1.1186-2.983 1.1186-5.4866 0-2.3971-0.34624-4.2082-1.0121-5.3801-0.66585-1.1985-1.7845-1.8111-3.3825-1.8111m0 17.392c-2.3438 0-4.1549-0.87893-5.4334-2.6101-1.2784-1.7579-1.9177-4.2615-1.9177-7.5907 0-3.276 0.63922-5.7796 1.891-7.5108 1.2518-1.7579 3.0629-2.6101 5.3801-2.6101 2.4237 0 4.2615 0.85229 5.5133 2.6101 1.2518 1.7046 1.891 4.2082 1.891 7.5108 0 3.3293-0.61259 5.8329-1.8644 7.5907-1.2252 1.7312-3.0363 2.6101-5.46 2.6101"/>
 <path d="m587.03 814.08h4.0218l1.1985-5.6198h-4.1017l-1.1186 5.6198m5.753-0.053268h3.3825v2.2905h-3.782l-1.0654 5.0339h-1.7046l1.0121-5.0339h-4.0218l-1.0654 5.0339h-1.7312l1.0121-5.0339h-3.2227v-2.2905h3.7021l1.092-5.5399h-3.4358v-2.2639h3.9419l0.90556-4.9273h1.8111l-0.95883 4.9273h3.9951l1.0121-4.9273h1.7312l-0.95883 4.9273h3.0363v2.2639h-3.5157l-1.1719 5.5399"/>
 <path d="m473.82 856.47c0 7.8533-8.9811 14.227-20.047 14.227s-20.047-6.3737-20.047-14.227 8.9811-14.227 20.047-14.227 20.047 6.3737 20.047 14.227z" fill="#f2f2f2"/>
 <path d="m471.23 853.88c0 7.8533-8.9811 14.227-20.047 14.227-11.066 0-20.047-6.3737-20.047-14.227s8.9811-14.227 20.047-14.227c11.066 0 20.047 6.3737 20.047 14.227z"/>
 <path d="m470.7 855.18c0 7.8533-8.9811 14.227-20.047 14.227-11.066 0-20.047-6.3737-20.047-14.227s8.9811-14.227 20.047-14.227c11.066 0 20.047 6.3737 20.047 14.227z"/>
 <path d="m436.49 852.18 18.837-3.8522c-7.3252-8.7497-12.921-0.81917-18.837 3.8522z" fill="#fff" fill-rule="evenodd"/>
 <path d="m521.38 856.47c0 7.8533-8.9811 14.227-20.047 14.227-11.066 0-20.047-6.3737-20.047-14.227s8.9811-14.227 20.047-14.227c11.066 0 20.047 6.3737 20.047 14.227z" fill="#f2f2f2"/>
 <path d="m518.79 853.88c0 7.8533-8.9811 14.227-20.047 14.227-11.066 0-20.047-6.3737-20.047-14.227s8.9811-14.227 20.047-14.227c11.066 0 20.047 6.3737 20.047 14.227z"/>
 <path d="m518.25 855.18c0 7.8533-8.9811 14.227-20.047 14.227-11.066 0-20.047-6.3737-20.047-14.227s8.9811-14.227 20.047-14.227c11.066 0 20.047 6.3737 20.047 14.227z"/>
 <path d="m484.05 852.18 18.837-3.8522c-7.3252-8.7497-12.921-0.81917-18.837 3.8522z" fill="#fff" fill-rule="evenodd"/>
 <path d="m568.93 856.47c0 7.8533-8.9811 14.227-20.047 14.227-11.066 0-20.047-6.3737-20.047-14.227s8.9811-14.227 20.047-14.227c11.066 0 20.047 6.3737 20.047 14.227z" fill="#f2f2f2"/>
 <path d="m566.34 853.88c0 7.8533-8.9811 14.227-20.047 14.227-11.066 0-20.047-6.3737-20.047-14.227s8.9811-14.227 20.047-14.227c11.066 0 20.047 6.3737 20.047 14.227z"/>
 <path d="m565.81 855.18c0 7.8533-8.9811 14.227-20.047 14.227-11.066 0-20.047-6.3737-20.047-14.227s8.9811-14.227 20.047-14.227c11.066 0 20.047 6.3737 20.047 14.227z"/>
 <path d="m531.6 852.18 18.837-3.8522c-7.3252-8.7497-12.921-0.81917-18.837 3.8522z" fill="#fff" fill-rule="evenodd"/>
 <path d="m616.49 856.47c0 7.8533-8.9811 14.227-20.047 14.227-11.066 0-20.047-6.3737-20.047-14.227s8.9811-14.227 20.047-14.227c11.066 0 20.047 6.3737 20.047 14.227z" fill="#f2f2f2"/>
 <path d="m613.9 853.88c0 7.8533-8.9811 14.227-20.047 14.227-11.066 0-20.047-6.3737-20.047-14.227s8.9811-14.227 20.047-14.227c11.066 0 20.047 6.3737 20.047 14.227z"/>
 <path d="m613.37 855.18c0 7.8533-8.9811 14.227-20.047 14.227-11.066 0-20.047-6.3737-20.047-14.227s8.9811-14.227 20.047-14.227c11.066 0 20.047 6.3737 20.047 14.227z"/>
 <path d="m579.16 852.18 18.837-3.8522c-7.3252-8.7497-12.921-0.81917-18.837 3.8522z" fill="#fff" fill-rule="evenodd"/>
 <rect x="467.45" y="934.69" width="46.865" height="5.4872" fill="#4d4d4d"/>
 <rect x="470.54" y="936.25" width="43.629" height="5.4872" fill="#fff"/>
 <rect x="471.16" y="931.9" width="9.1454" height="7.3163"/>
 <rect x="485.8" y="931.9" width="9.1454" height="7.3163"/>
 <rect x="500.44" y="931.9" width="9.1454" height="7.3163"/>
 <rect x="538.58" y="934.69" width="46.865" height="5.4872" fill="#4d4d4d"/>
 <rect x="541.68" y="936.25" width="43.629" height="5.4872" fill="#fff"/>
 <rect x="542.29" y="931.9" width="9.1454" height="7.3163"/>
 <rect x="556.93" y="931.9" width="9.1454" height="7.3163"/>
 <rect x="571.58" y="931.9" width="9.1454" height="7.3163"/>
 <path d="m451.97 506.52 10.062 5.4839c43.871 34.662 120.1 11.097 145.43-9.1312l-34.766 26.514c-32.541 4.9665-62.883 4.475-90.536-2.7419z" fill="#fff" fill-rule="evenodd"/>
 <path d="m504.62 534.21c-4.2082 6.9781-16.646 8.6295-27.806 3.7021-11.144-4.9539-16.782-14.596-12.582-21.574 4.1922-6.9781 16.63-8.6295 27.79-3.7021 11.16 4.9539 16.806 14.596 12.598 21.574z"/>
 <path d="m548.38 534.21c4.1816 6.9781 16.646 8.6295 27.779 3.7021 11.16-4.9539 16.806-14.596 12.598-21.574s-16.646-8.6295-27.806-3.7021c-11.133 4.9539-16.78 14.596-12.571 21.574z"/>
 <path d="m466.58 518.47 28.826 1.6987c-9.1251-8.5722-21.745-8.6945-28.826-1.6987z" fill="#fff" fill-rule="evenodd"/>
 <path d="m552.61 525.05 27.073-10.044c-11.803-4.176-23.406 0.78997-27.073 10.044z" fill="#fff" fill-rule="evenodd"/>
 <rect x="476.07" y="288" width="101.51" height="9.8231" rx="4.9114" ry="4.9114" fill="#fff" opacity=".8"/>
 <rect x="474.47" y="285.72" width="101.51" height="9.8231" rx="4.9114" ry="4.9114" fill="#333"/>
 <rect x="476.42" y="288" width="101.51" height="9.8232" rx="4.9116" ry="4.9116"/>
</svg>
